<?xml version="1.0" encoding="iso-8859-1"?>
<!-- Generator: Adobe Illustrator 17.1.0, SVG Export Plug-In . SVG Version: 6.00 Build 0)  -->
<!DOCTYPE svg PUBLIC "-//W3C//DTD SVG 1.1//EN" "http://www.w3.org/Graphics/SVG/1.1/DTD/svg11.dtd">
<svg version="1.1" id="Capa_1" xmlns="http://www.w3.org/2000/svg" xmlns:xlink="http://www.w3.org/1999/xlink" x="0px" y="0px"
	 viewBox="0 0 441.258 441.258" style="enable-background:new 0 0 441.258 441.258;" xml:space="preserve">
<g>
	<path d="M81.256,329.828H15c-8.271,0-15,6.729-15,15v27.614c0,8.271,6.728,15,15,15h66.256c8.271,0,15-6.729,15-15v-27.614
		C96.256,336.557,89.527,329.828,81.256,329.828z"/>
	<path d="M192.292,329.828h-66.256c-8.271,0-15,6.729-15,15v27.614c0,8.271,6.729,15,15,15h66.256c8.271,0,15-6.729,15-15v-27.614
		C207.292,336.557,200.563,329.828,192.292,329.828z"/>
	<path d="M303.328,329.828h-66.256c-8.271,0-15,6.729-15,15v27.614c0,8.271,6.729,15,15,15h66.256c8.272,0,15-6.729,15-15v-27.614
		C318.328,336.557,311.6,329.828,303.328,329.828z"/>
	<path d="M15,249.084h66.256c8.271,0,15-6.729,15-15V206.47c0-8.271-6.729-15-15-15H15c-8.271,0-15,6.729-15,15v27.614
		C0,242.355,6.728,249.084,15,249.084z"/>
	<path d="M126.036,249.084h66.256c8.271,0,15-6.729,15-15V206.47c0-8.271-6.729-15-15-15h-66.256c-8.271,0-15,6.729-15,15v27.614
		C111.036,242.355,117.765,249.084,126.036,249.084z"/>
	<path d="M70.519,260.649c-8.271,0-15,6.729-15,15v27.614c0,8.271,6.729,15,15,15h66.256c8.271,0,15-6.729,15-15v-27.614
		c0-8.271-6.729-15-15-15H70.519z"/>
	<path d="M166.555,275.649v27.614c0,8.271,6.729,15,15,15h66.256c8.271,0,15-6.729,15-15v-27.614c0-8.271-6.728-15-15-15h-66.256
		C173.283,260.649,166.555,267.378,166.555,275.649z"/>
	<path d="M437.167,68.924l-11.02-11.02c-2.637-2.637-6.152-4.089-9.899-4.089c-3.746,0-7.262,1.452-9.898,4.089l-36.9,36.901
		c-4.926,4.926-5.391,12.632-1.426,18.102l-40.897,40.897l-20.863-20.863c-2.446-2.446-5.586-3.794-8.841-3.794
		c-4.085,0-7.809,2.066-10.217,5.668l-30.343,45.384c-3.257,4.87-5.921,13.275-6.066,19.136l-0.781,31.826
		c-0.091,3.712,1.271,7.203,3.834,9.83c2.562,2.625,6.014,4.071,9.718,4.071l32.171-0.786c5.858-0.144,14.263-2.808,19.136-6.065
		l45.384-30.343c3.21-2.147,5.256-5.453,5.611-9.07s-1.006-7.258-3.737-9.989l-20.863-20.863l40.895-40.895
		c2.369,1.72,5.209,2.662,8.204,2.662c3.746,0,7.262-1.453,9.898-4.09l36.9-36.9c2.638-2.637,4.091-6.153,4.091-9.9
		C441.258,75.077,439.805,71.561,437.167,68.924z M338.239,199.779c-1.94,4.935-10.201,6.475-14.833,10.737
		c-4.01,3.689-5.665,11.889-11.27,14.383c-5.605,2.493-12.804-1.768-18.228-1.26c-6.268,0.587-12.943,5.691-17.908,3.827
		c-5.819-2.185-6.556-10.008-8.884-15.241c-2.328-5.234-7.645-11.02-5.371-16.805c1.94-4.935,10.201-6.475,14.833-10.737
		c4.01-3.689,5.665-11.889,11.27-14.383c5.605-2.493,12.804,1.768,18.228,1.26c6.268-0.587,12.943-5.691,17.908-3.827
		c5.819,2.185,6.556,10.007,8.884,15.241C335.197,188.208,340.513,193.994,338.239,199.779z"/>
</g>
<g>
</g>
<g>
</g>
<g>
</g>
<g>
</g>
<g>
</g>
<g>
</g>
<g>
</g>
<g>
</g>
<g>
</g>
<g>
</g>
<g>
</g>
<g>
</g>
<g>
</g>
<g>
</g>
<g>
</g>
</svg>
