<?xml version="1.0" encoding="UTF-8" standalone="no"?>
<!-- Generator: Adobe Illustrator 18.1.1, SVG Export Plug-In . SVG Version: 6.00 Build 0)  -->

<svg
   xmlns:dc="http://purl.org/dc/elements/1.1/"
   xmlns:cc="http://creativecommons.org/ns#"
   xmlns:rdf="http://www.w3.org/1999/02/22-rdf-syntax-ns#"
   xmlns:svg="http://www.w3.org/2000/svg"
   xmlns="http://www.w3.org/2000/svg"
   xmlns:sodipodi="http://sodipodi.sourceforge.net/DTD/sodipodi-0.dtd"
   xmlns:inkscape="http://www.inkscape.org/namespaces/inkscape"
   version="1.1"
   id="Capa_1"
   x="0px"
   y="0px"
   viewBox="0 0 88 88"
   style="enable-background:new 0 0 88 88;"
   xml:space="preserve"
   inkscape:version="0.91 r13725"
   sodipodi:docname="level-1.svg"><metadata
     id="metadata41"><rdf:RDF><cc:Work
         rdf:about=""><dc:format>image/svg+xml</dc:format><dc:type
           rdf:resource="http://purl.org/dc/dcmitype/StillImage" /><dc:title></dc:title></cc:Work></rdf:RDF></metadata><defs
     id="defs39" /><sodipodi:namedview
     pagecolor="#ffffff"
     bordercolor="#666666"
     borderopacity="1"
     objecttolerance="10"
     gridtolerance="10"
     guidetolerance="10"
     inkscape:pageopacity="0"
     inkscape:pageshadow="2"
     inkscape:window-width="1301"
     inkscape:window-height="744"
     id="namedview37"
     showgrid="false"
     inkscape:zoom="5.6568543"
     inkscape:cx="51.294441"
     inkscape:cy="44.220528"
     inkscape:window-x="65"
     inkscape:window-y="24"
     inkscape:window-maximized="1"
     inkscape:current-layer="Capa_1" /><g
     id="g7"
     transform="matrix(0,1,-1,0,88,88)" /><g
     id="g9"
     transform="matrix(0,1,-1,0,88,88)" /><g
     id="g11"
     transform="matrix(0,1,-1,0,88,88)" /><g
     id="g13"
     transform="matrix(0,1,-1,0,88,88)" /><g
     id="g15"
     transform="matrix(0,1,-1,0,88,88)" /><g
     id="g17"
     transform="matrix(0,1,-1,0,88,88)" /><g
     id="g19"
     transform="matrix(0,1,-1,0,88,88)" /><g
     id="g21"
     transform="matrix(0,1,-1,0,88,88)" /><g
     id="g23"
     transform="matrix(0,1,-1,0,88,88)" /><g
     id="g25"
     transform="matrix(0,1,-1,0,88,88)" /><g
     id="g27"
     transform="matrix(0,1,-1,0,88,88)" /><g
     id="g29"
     transform="matrix(0,1,-1,0,88,88)" /><g
     id="g31"
     transform="matrix(0,1,-1,0,88,88)" /><g
     id="g33"
     transform="matrix(0,1,-1,0,88,88)" /><g
     id="g35"
     transform="matrix(0,1,-1,0,88,88)" /><path
     style="opacity:1;fill:#000000;fill-opacity:1;stroke:none;stroke-opacity:1"
     d="m 57.055766,38.399435 c 0,-1.078516 4.46e-4,-1.519143 9.92e-4,-0.979172 5.46e-4,0.53997 5.46e-4,1.422392 0,1.960937 -5.46e-4,0.538545 -9.92e-4,0.09675 -9.92e-4,-0.981765 z"
     id="path5236"
     inkscape:connector-curvature="0" /><path
     style="opacity:1;fill:#000000;fill-opacity:1;stroke:none;stroke-opacity:1"
     d="m 57.04211,38.399435 c 0,-1.738715 6.58e-4,-1.958984 0.0059,-1.958984 0.0052,0 0.0059,0.220269 0.0059,1.958984 0,1.738715 -6.59e-4,1.958984 -0.0059,1.958984 -0.0052,0 -0.0059,-0.220269 -0.0059,-1.958984 z"
     id="path5238"
     inkscape:connector-curvature="0" /><path
     style="opacity:1;fill:#000000;fill-opacity:1;stroke:none;stroke-width:0.1;stroke-miterlimit:4;stroke-dasharray:none;stroke-opacity:1"
     d="M 29.875 -0.03515625 C 25.076222 -0.03515625 21.212891 3.8281752 21.212891 8.6269531 L 21.212891 79.337891 C 21.212891 84.136669 25.076222 88 29.875 88 L 56.568359 88 C 61.367137 88 65.230469 84.136669 65.230469 79.337891 L 65.230469 8.6269531 C 65.230469 3.8281752 61.367137 -0.03515625 56.568359 -0.03515625 L 29.875 -0.03515625 z M 29.875 8.2734375 L 56.214844 8.2734375 L 56.214844 55.296875 L 29.875 55.296875 L 29.875 8.2734375 z "
     id="rect5244" /></svg>