<?xml version="1.0" encoding="UTF-8" standalone="no"?>
<!-- Created with Inkscape (http://www.inkscape.org/) -->

<svg
   xmlns:dc="http://purl.org/dc/elements/1.1/"
   xmlns:cc="http://creativecommons.org/ns#"
   xmlns:rdf="http://www.w3.org/1999/02/22-rdf-syntax-ns#"
   xmlns:svg="http://www.w3.org/2000/svg"
   xmlns="http://www.w3.org/2000/svg"
   xmlns:sodipodi="http://sodipodi.sourceforge.net/DTD/sodipodi-0.dtd"
   xmlns:inkscape="http://www.inkscape.org/namespaces/inkscape"
   id="svg2"
   version="1.1"
   inkscape:version="0.91 r13725"
   xml:space="preserve"
   width="1000"
   height="1000"
   viewBox="0 0 1000 1000"
   sodipodi:docname="information.svg"><metadata
     id="metadata8"><rdf:RDF><cc:Work
         rdf:about=""><dc:format>image/svg+xml</dc:format><dc:type
           rdf:resource="http://purl.org/dc/dcmitype/StillImage" /><dc:title /></cc:Work></rdf:RDF></metadata><defs
     id="defs6" /><sodipodi:namedview
     pagecolor="#ffffff"
     bordercolor="#666666"
     borderopacity="1"
     objecttolerance="10"
     gridtolerance="10"
     guidetolerance="10"
     inkscape:pageopacity="0"
     inkscape:pageshadow="2"
     inkscape:window-width="1855"
     inkscape:window-height="1056"
     id="namedview4"
     showgrid="false"
     inkscape:zoom="2.6700352"
     inkscape:cx="500.22849"
     inkscape:cy="2.454365"
     inkscape:window-x="65"
     inkscape:window-y="24"
     inkscape:window-maximized="1"
     inkscape:current-layer="g10" /><g
     id="g10"
     inkscape:groupmode="layer"
     inkscape:label="ink_ext_XXXXXX"
     transform="matrix(1.25,0,0,-1.25,0,1000)"><path
       inkscape:connector-curvature="0"
       id="path14"
       style="fill:#3cada5;fill-opacity:1;fill-rule:nonzero;stroke:none"
       d="M 0,0 800,0 800,800 0,800 0,0 Z" /><path
       inkscape:connector-curvature="0"
       id="path16"
       style="fill:#7ec6c8;fill-opacity:1;fill-rule:nonzero;stroke:none"
       d="m 399.994,183.496 c -119.566,0 -216.493,96.933 -216.493,216.504 0,119.57 96.927,216.504 216.493,216.504 119.576,0 216.505,-96.934 216.505,-216.504 0,-119.571 -96.929,-216.504 -216.505,-216.504" /><path
       inkscape:connector-curvature="0"
       id="path18"
       style="fill:#f7a00e;fill-opacity:1;fill-rule:nonzero;stroke:none"
       d="m 676.69,444.886 -147.507,-0.001 c 0.279,-1.18 1.709,-2.106 3.501,-2.253 l 144.004,0 0.002,2.254" /><path
       inkscape:connector-curvature="0"
       id="path20"
       style="fill:#f4e7a7;fill-opacity:1;fill-rule:nonzero;stroke:none"
       d="m 676.688,437.27 0,5.362 -144.004,0 0.003,-0.002 -0.045,-0.006 0.049,-0.002 c -2.005,-0.164 -3.559,-1.295 -3.562,-2.671 0.004,-1.376 1.558,-2.507 3.562,-2.67 l -0.049,-0.003 0.045,-0.007 -0.002,-0.001 144.003,0" /><path
       inkscape:connector-curvature="0"
       id="path22"
       style="fill:#f7a00e;fill-opacity:1;fill-rule:nonzero;stroke:none"
       d="m 532.685,437.27 c -1.794,-0.146 -3.224,-1.073 -3.503,-2.253 l 147.506,0 0,2.253 -144.003,0" /><path
       inkscape:connector-curvature="0"
       id="path24"
       style="fill:#efa955;fill-opacity:1;fill-rule:nonzero;stroke:none"
       d="m 529.182,435.012 c 0.274,1.182 1.705,2.111 3.503,2.258 l 0.002,0.001 -0.045,0.007 0.049,0.003 c -2.004,0.163 -3.558,1.294 -3.562,2.67 0.003,1.376 1.557,2.507 3.562,2.671 l -0.049,0.002 0.045,0.006 -0.003,0.002 c -1.797,0.147 -3.227,1.075 -3.502,2.259 l -9.45,-4.94 9.45,-4.939" /><path
       inkscape:connector-curvature="0"
       id="path26"
       style="fill:#1b3451;fill-opacity:1;fill-rule:nonzero;stroke:none"
       d="m 524.37,442.376 -4.638,-2.425 4.637,-2.426 c 0.283,0.782 0.44,1.591 0.438,2.426 0.002,0.835 -0.155,1.647 -0.437,2.425" /><path
       inkscape:connector-curvature="0"
       id="path28"
       style="fill:#c71e29;fill-opacity:1;fill-rule:nonzero;stroke:none"
       d="m 676.744,444.886 10e-4,-2.254 4.473,0 -0.003,2.253 -4.471,0.001" /><path
       inkscape:connector-curvature="0"
       id="path30"
       style="fill:#f03c63;fill-opacity:1;fill-rule:nonzero;stroke:none"
       d="m 676.745,442.632 -10e-4,-5.362 4.471,0 0.003,5.362 -4.473,0" /><path
       inkscape:connector-curvature="0"
       id="path32"
       style="fill:#c71e29;fill-opacity:1;fill-rule:nonzero;stroke:none"
       d="m 676.744,437.27 10e-4,-2.253 4.473,0 -0.003,2.253 -4.471,0" /><path
       inkscape:connector-curvature="0"
       id="path34"
       style="fill:#4b617e;fill-opacity:1;fill-rule:nonzero;stroke:none"
       d="m 684.713,473.396 c -0.472,0 -0.954,0.111 -1.393,0.358 l -24.749,13.298 c -4.76,2.56 -9.833,4.524 -15.07,5.842 -5.238,1.326 -10.638,1.991 -16.043,1.991 l -108.786,0 0,5.9 108.786,0 c 5.89,0 11.77,-0.735 17.484,-2.169 5.705,-1.438 11.23,-3.583 16.418,-6.375 l 24.75,-13.299 c 1.437,-0.771 1.971,-2.558 1.202,-3.99 -0.533,-0.989 -1.55,-1.556 -2.599,-1.556" /><path
       inkscape:connector-curvature="0"
       id="path36"
       style="fill:#4b617e;fill-opacity:1;fill-rule:nonzero;stroke:none"
       d="m 515.559,473.396 c 0.47,0 0.951,0.111 1.396,0.358 l 24.745,13.298 c 4.76,2.56 9.831,4.524 15.067,5.842 5.239,1.326 10.64,1.991 16.044,1.991 l 108.79,0 0,5.9 -108.79,0 c -5.892,0 -11.773,-0.735 -17.482,-2.169 -5.709,-1.438 -11.229,-3.583 -16.423,-6.375 l -24.747,-13.299 c -1.433,-0.771 -1.971,-2.558 -1.201,-3.99 0.534,-0.989 1.552,-1.556 2.601,-1.556" /><path
       inkscape:connector-curvature="0"
       id="path38"
       style="fill:#223249;fill-opacity:1;fill-rule:nonzero;stroke:none"
       d="m 592.384,496.089 0,0 c 0,4.274 3.477,7.745 7.749,7.745 4.277,0 7.755,-3.471 7.755,-7.745 l 5.893,0 c 0,7.536 -6.105,13.645 -13.648,13.645 -7.535,0 -13.644,-6.109 -13.644,-13.645 l 5.895,0" /><path
       inkscape:connector-curvature="0"
       id="path40"
       style="fill:#e5f3fb;fill-opacity:1;fill-rule:nonzero;stroke:none"
       d="m 586.489,486.859 c 0,-6.211 -5.082,-11.293 -11.293,-11.293 l -39.338,0 c -6.211,0 -11.292,5.082 -11.292,11.293 l 0,21.207 c 0,6.211 5.081,11.294 11.292,11.294 l 39.338,0 c 6.211,0 11.293,-5.083 11.293,-11.294 l 0,-21.207" /><path
       inkscape:connector-curvature="0"
       id="path42"
       style="fill:#d2e6f5;fill-opacity:1;fill-rule:nonzero;stroke:none"
       d="m 575.196,519.36 -21.642,0 0,-43.794 21.642,0 c 6.211,0 11.293,5.082 11.293,11.293 l 0,21.207 c 0,6.211 -5.082,11.294 -11.293,11.294" /><path
       inkscape:connector-curvature="0"
       id="path44"
       style="fill:#e5f3fb;fill-opacity:1;fill-rule:nonzero;stroke:none"
       d="m 675.531,486.859 c 0,-6.211 -5.083,-11.293 -11.294,-11.293 l -39.338,0 c -6.211,0 -11.292,5.082 -11.292,11.293 l 0,21.207 c 0,6.211 5.081,11.294 11.292,11.294 l 39.338,0 c 6.211,0 11.294,-5.083 11.294,-11.294 l 0,-21.207" /><path
       inkscape:connector-curvature="0"
       id="path46"
       style="fill:#d2e6f5;fill-opacity:1;fill-rule:nonzero;stroke:none"
       d="m 664.237,519.36 -21.641,0 0,-43.794 21.641,0 c 6.211,0 11.294,5.082 11.294,11.293 l 0,21.207 c 0,6.211 -5.083,11.294 -11.294,11.294" /><path
       inkscape:connector-curvature="0"
       id="path48"
       style="fill:#2b3f5c;fill-opacity:1;fill-rule:nonzero;stroke:none"
       d="m 586.489,486.859 c 0,-6.211 -5.082,-11.293 -11.293,-11.293 l -39.338,0 c -6.211,0 -11.292,5.082 -11.292,11.293 l 0,21.207 c 0,6.211 5.081,11.294 11.292,11.294 l 39.338,0 c 6.211,0 11.293,-5.083 11.293,-11.294 l 0,-21.207 z m -8.364,38.249 -45.195,0 c -7.843,0 -14.258,-6.417 -14.258,-14.257 l 0,-26.776 c 0,-7.842 6.415,-14.258 14.258,-14.258 l 45.195,0 c 7.843,0 14.259,6.416 14.259,14.258 l 0,26.776 c 0,7.84 -6.416,14.257 -14.259,14.257" /><path
       inkscape:connector-curvature="0"
       id="path50"
       style="fill:#2b3f5c;fill-opacity:1;fill-rule:nonzero;stroke:none"
       d="m 675.531,486.859 c 0,-6.211 -5.083,-11.293 -11.294,-11.293 l -39.338,0 c -6.211,0 -11.292,5.082 -11.292,11.293 l 0,21.207 c 0,6.211 5.081,11.294 11.292,11.294 l 39.338,0 c 6.211,0 11.294,-5.083 11.294,-11.294 l 0,-21.207 z m -8.364,38.249 -45.195,0 c -7.843,0 -14.259,-6.417 -14.259,-14.257 l 0,-26.776 c 0,-7.842 6.416,-14.258 14.259,-14.258 l 45.195,0 c 7.843,0 14.258,6.416 14.258,14.258 l 0,26.776 c 0,7.84 -6.415,14.257 -14.258,14.257" /><path
       inkscape:connector-curvature="0"
       id="path52"
       style="fill:#ffffff;fill-opacity:1;fill-rule:evenodd;stroke:none"
       d="m 78.9777,522.332 245.3173,-0.135 -0.194,-346.951 -245.3174,0.137 0.1941,346.949" /><path
       inkscape:connector-curvature="0"
       id="path54"
       style="fill:#ace1eb;fill-opacity:1;fill-rule:nonzero;stroke:none"
       d="m 229.431,339.833 c -1.319,-4.075 -3.442,-7.74 -6.289,-10.807 l 21.451,-29.947 c 10.841,9.344 18.629,22.11 21.579,36.679 l -36.741,4.075" /><path
       inkscape:connector-curvature="0"
       id="path56"
       style="fill:#f79013;fill-opacity:1;fill-rule:nonzero;stroke:none"
       d="m 207.541,377.815 c 12.498,-2.604 21.966,-13.144 23.209,-26.07 l 36.688,-4.047 c 0,0.413 0.052,0.813 0.052,1.24 0,34.384 -26.34,62.601 -59.949,65.642 l 0,-36.765" /><path
       inkscape:connector-curvature="0"
       id="path58"
       style="fill:#45b5bf;fill-opacity:1;fill-rule:nonzero;stroke:none"
       d="m 179.833,368.707 c 4.084,4.525 9.491,7.814 15.73,9.108 l 0,36.765 c -19.588,-1.76 -36.61,-12.083 -47.504,-27.17 l 31.774,-18.703" /><path
       inkscape:connector-curvature="0"
       id="path60"
       style="fill:#528db9;fill-opacity:1;fill-rule:nonzero;stroke:none"
       d="m 213.441,322.016 c -3.648,-1.63 -7.659,-2.563 -11.902,-2.563 -16.275,0 -29.472,13.21 -29.472,29.484 0,3.326 0.674,6.459 1.686,9.432 l -31.774,18.721 c -4.035,-8.55 -6.392,-18.062 -6.392,-28.153 0,-36.427 29.52,-65.937 65.952,-65.937 12.158,0 23.522,3.324 33.299,9.095 l -21.397,29.921" /><path
       inkscape:connector-curvature="0"
       id="path62"
       style="fill:#f79013;fill-opacity:1;fill-rule:nonzero;stroke:none"
       d="m 104.337,490.015 30.6988,0 0,8.93281 -30.6988,0 0,-8.93281 z" /><path
       inkscape:connector-curvature="0"
       id="path64"
       style="fill:#45b5bf;fill-opacity:1;fill-rule:nonzero;stroke:none"
       d="m 104.337,469.656 30.6988,0 0,8.9332 -30.6988,0 0,-8.9332 z" /><path
       inkscape:connector-curvature="0"
       id="path66"
       style="fill:#ace1eb;fill-opacity:1;fill-rule:nonzero;stroke:none"
       d="m 104.337,449.298 30.6988,0 0,8.93203 -30.6988,0 0,-8.93203 z" /><path
       inkscape:connector-curvature="0"
       id="path68"
       style="fill:#528db9;fill-opacity:1;fill-rule:nonzero;stroke:none"
       d="m 104.337,428.939 30.6988,0 0,8.93203 -30.6988,0 0,-8.93203 z" /><path
       inkscape:connector-curvature="0"
       id="path70"
       style="fill:#cdccca;fill-opacity:1;fill-rule:nonzero;stroke:none"
       d="m 155.821,488.45 142.919,0 0,10.052 -142.919,0 0,-10.052 z" /><path
       inkscape:connector-curvature="0"
       id="path72"
       style="fill:#cdccca;fill-opacity:1;fill-rule:nonzero;stroke:none"
       d="m 155.821,458.42 142.919,0 0,10.043 -142.919,0 0,-10.043 z" /><path
       inkscape:connector-curvature="0"
       id="path74"
       style="fill:#cdccca;fill-opacity:1;fill-rule:nonzero;stroke:none"
       d="m 155.821,428.387 142.919,0 0,10.0359 -142.919,0 0,-10.0359 z" /><path
       inkscape:connector-curvature="0"
       id="path76"
       style="fill:#cdccca;fill-opacity:1;fill-rule:nonzero;stroke:none"
       d="m 155.821,443.406 142.919,0 0,10.0352 -142.919,0 0,-10.0352 z" /><path
       inkscape:connector-curvature="0"
       id="path78"
       style="fill:#cdccca;fill-opacity:1;fill-rule:nonzero;stroke:none"
       d="m 155.821,473.441 142.919,0 0,10.0359 -142.919,0 0,-10.0359 z" /><path
       inkscape:connector-curvature="0"
       id="path80"
       style="fill:#cdccca;fill-opacity:1;fill-rule:nonzero;stroke:none"
       d="m 104.34,204.803 6.49531,0 0,69.025 -6.49531,0 0,-69.025 z" /><path
       inkscape:connector-curvature="0"
       id="path82"
       style="fill:#cdccca;fill-opacity:1;fill-rule:nonzero;stroke:none"
       d="m 104.337,198.307 194.403,0 0,6.49609 -194.403,0 0,-6.49609 z" /><path
       inkscape:connector-curvature="0"
       id="path84"
       style="fill:#45b5bf;fill-opacity:1;fill-rule:nonzero;stroke:none"
       d="m 127.89,204.803 17.4031,0 0,30.6938 -17.4031,0 0,-30.6938 z" /><path
       inkscape:connector-curvature="0"
       id="path86"
       style="fill:#ace1eb;fill-opacity:1;fill-rule:nonzero;stroke:none"
       d="m 127.89,235.497 17.4031,0 0,15.3453 -17.4031,0 0,-15.3453 z" /><path
       inkscape:connector-curvature="0"
       id="path88"
       style="fill:#45b5bf;fill-opacity:1;fill-rule:nonzero;stroke:none"
       d="m 160.344,204.803 17.4047,0 0,43.9848 -17.4047,0 0,-43.9848 z" /><path
       inkscape:connector-curvature="0"
       id="path90"
       style="fill:#ace1eb;fill-opacity:1;fill-rule:nonzero;stroke:none"
       d="m 160.344,248.788 17.4047,0 0,8.79727 -17.4047,0 0,-8.79727 z" /><path
       inkscape:connector-curvature="0"
       id="path92"
       style="fill:#45b5bf;fill-opacity:1;fill-rule:nonzero;stroke:none"
       d="m 192.799,204.803 17.4043,0 0,22.3328 -17.4043,0 0,-22.3328 z" /><path
       inkscape:connector-curvature="0"
       id="path94"
       style="fill:#ace1eb;fill-opacity:1;fill-rule:nonzero;stroke:none"
       d="m 192.799,227.136 17.4043,0 0,16.034 -17.4043,0 0,-16.034 z" /><path
       inkscape:connector-curvature="0"
       id="path96"
       style="fill:#45b5bf;fill-opacity:1;fill-rule:nonzero;stroke:none"
       d="m 225.254,204.803 17.4043,0 0,12.7898 -17.4043,0 0,-12.7898 z" /><path
       inkscape:connector-curvature="0"
       id="path98"
       style="fill:#ace1eb;fill-opacity:1;fill-rule:nonzero;stroke:none"
       d="m 225.254,217.593 17.4043,0 0,12.7879 -17.4043,0 0,-12.7879 z" /><path
       inkscape:connector-curvature="0"
       id="path100"
       style="fill:#e8e7e6;fill-opacity:1;fill-rule:nonzero;stroke:none"
       d="m 324.125,219.815 -70.678,0.042 0.05,88.536 c 5.45,6.937 9.537,14.988 11.842,23.777 l -0.057,-100.658 58.85,-0.033 -0.007,-11.664 m -58.784,116.035 -11.828,1.312 0.006,12.072 11.829,-1.305 -0.007,-12.079 m 0.016,29.778 c -2.298,8.802 -6.371,16.886 -11.815,23.849 l 0.022,38.91 11.829,0 -0.036,-62.759 m 0.041,72.795 -11.828,0 0.002,4.983 11.829,0 -0.003,-4.983 m 0.009,15.018 -11.829,0 0.003,4.979 11.829,0 -0.003,-4.979 m 0.008,15.022 -11.829,0 0.003,4.978 11.829,0 -0.003,-4.978 m 0.009,15.014 -11.829,0 0.003,4.973 11.828,0 -0.002,-4.973 m 0.008,15.025 -11.829,0 0.014,23.733 11.828,-0.006 -0.013,-23.727" /><path
       inkscape:connector-curvature="0"
       id="path102"
       style="fill:#98c9d1;fill-opacity:1;fill-rule:nonzero;stroke:none"
       d="m 253.497,308.393 0.016,28.769 11.828,-1.312 -0.002,-3.68 c -2.305,-8.789 -6.392,-16.84 -11.842,-23.777" /><path
       inkscape:connector-curvature="0"
       id="path104"
       style="fill:#de8118;fill-opacity:1;fill-rule:nonzero;stroke:none"
       d="m 265.348,347.929 -11.829,1.305 0.023,40.243 c 5.444,-6.963 9.517,-15.047 11.815,-23.849 l -0.009,-17.699" /><path
       inkscape:connector-curvature="0"
       id="path106"
       style="fill:#b6b5b4;fill-opacity:1;fill-rule:nonzero;stroke:none"
       d="m 265.426,488.45 -11.828,0 0.005,10.052 11.829,0 -0.006,-10.052" /><path
       inkscape:connector-curvature="0"
       id="path108"
       style="fill:#b6b5b4;fill-opacity:1;fill-rule:nonzero;stroke:none"
       d="m 265.41,458.42 -11.829,0 0.005,10.043 11.829,0 -0.005,-10.043" /><path
       inkscape:connector-curvature="0"
       id="path110"
       style="fill:#b6b5b4;fill-opacity:1;fill-rule:nonzero;stroke:none"
       d="m 265.393,428.387 -11.829,0 0.006,10.036 11.828,0 -0.005,-10.036" /><path
       inkscape:connector-curvature="0"
       id="path112"
       style="fill:#b6b5b4;fill-opacity:1;fill-rule:nonzero;stroke:none"
       d="m 265.401,443.406 -11.829,0 0.006,10.035 11.829,0 -0.006,-10.035" /><path
       inkscape:connector-curvature="0"
       id="path114"
       style="fill:#b6b5b4;fill-opacity:1;fill-rule:nonzero;stroke:none"
       d="m 265.418,473.441 -11.829,0 0.006,10.036 11.829,0 -0.006,-10.036" /><path
       inkscape:connector-curvature="0"
       id="path116"
       style="fill:#ffffff;fill-opacity:1;fill-rule:evenodd;stroke:none"
       d="m 265.475,575.227 243.031,-0.135 -0.193,-343.717 -243.031,0.137 0.193,343.715" /><path
       inkscape:connector-curvature="0"
       id="path118"
       style="fill:#528db9;fill-opacity:1;fill-rule:evenodd;stroke:none"
       d="m 295.974,397.552 20.988,-0.012 -0.035,-19.094 -20.992,0.013 0.039,19.093" /><path
       inkscape:connector-curvature="0"
       id="path120"
       style="fill:#649dc4;fill-opacity:1;fill-rule:evenodd;stroke:none"
       d="m 320.227,405.771 20.992,-0.01 -0.024,-27.326 -20.99,0.011 0.022,27.325" /><path
       inkscape:connector-curvature="0"
       id="path122"
       style="fill:#77add0;fill-opacity:1;fill-rule:evenodd;stroke:none"
       d="m 344.491,424.909 20.989,-0.01 -0.017,-46.478 -20.988,0.012 0.016,46.476" /><path
       inkscape:connector-curvature="0"
       id="path124"
       style="fill:#8dbfde;fill-opacity:1;fill-rule:evenodd;stroke:none"
       d="m 368.766,418.452 20.989,-0.013 -0.023,-40.031 -20.988,0.012 0.022,40.032" /><path
       inkscape:connector-curvature="0"
       id="path126"
       style="fill:#a0cfe9;fill-opacity:1;fill-rule:evenodd;stroke:none"
       d="m 393.028,398.443 20.99,-0.011 -0.017,-20.038 -20.987,0.011 0.014,20.038" /><path
       inkscape:connector-curvature="0"
       id="path128"
       style="fill:#77add0;fill-opacity:1;fill-rule:evenodd;stroke:none"
       d="m 416.68,406.024 20.988,-0.011 -0.014,-27.592 -20.99,0.012 0.016,27.591" /><path
       inkscape:connector-curvature="0"
       id="path130"
       style="fill:#8dbfde;fill-opacity:1;fill-rule:evenodd;stroke:none"
       d="m 440.956,418.458 20.987,-0.013 -0.021,-40.037 -20.989,0.012 0.023,40.038" /><path
       inkscape:connector-curvature="0"
       id="path132"
       style="fill:#a0cfe9;fill-opacity:1;fill-rule:evenodd;stroke:none"
       d="m 465.216,444.893 20.991,-0.01 -0.016,-66.489 -20.988,0.011 0.013,66.488" /><path
       inkscape:connector-curvature="0"
       id="path134"
       style="fill:#cdccca;fill-opacity:1;fill-rule:evenodd;stroke:none"
       d="m 287.647,350.175 91.061,-0.05 -0.001,-6.051 -91.064,0.051 0.004,6.05" /><path
       inkscape:connector-curvature="0"
       id="path136"
       style="fill:#cdccca;fill-opacity:1;fill-rule:evenodd;stroke:none"
       d="m 287.64,339.587 91.065,-0.049 -0.006,-6.051 -91.061,0.05 0.002,6.05" /><path
       inkscape:connector-curvature="0"
       id="path138"
       style="fill:#cdccca;fill-opacity:1;fill-rule:evenodd;stroke:none"
       d="m 287.634,328.999 91.062,-0.051 -0.002,-6.05 -91.064,0.049 0.004,6.052" /><path
       inkscape:connector-curvature="0"
       id="path140"
       style="fill:#cdccca;fill-opacity:1;fill-rule:evenodd;stroke:none"
       d="m 287.629,318.411 91.062,-0.051 -0.002,-6.048 -91.064,0.045 0.004,6.054" /><path
       inkscape:connector-curvature="0"
       id="path142"
       style="fill:#cdccca;fill-opacity:1;fill-rule:evenodd;stroke:none"
       d="m 287.623,307.822 91.062,-0.05 -0.004,-6.05 -91.062,0.05 0.004,6.05" /><path
       inkscape:connector-curvature="0"
       id="path144"
       style="fill:#cdccca;fill-opacity:1;fill-rule:evenodd;stroke:none"
       d="m 287.617,297.235 91.064,-0.05 -0.006,-6.052 -91.061,0.053 0.003,6.049" /><path
       inkscape:connector-curvature="0"
       id="path146"
       style="fill:#cdccca;fill-opacity:1;fill-rule:evenodd;stroke:none"
       d="m 287.609,286.646 91.066,-0.049 -0.006,-6.055 -91.061,0.054 10e-4,6.05" /><path
       inkscape:connector-curvature="0"
       id="path148"
       style="fill:#cdccca;fill-opacity:1;fill-rule:evenodd;stroke:none"
       d="m 287.605,276.058 45.532,-0.026 -0.002,-6.051 -45.533,0.025 0.003,6.052" /><path
       inkscape:connector-curvature="0"
       id="path150"
       style="fill:#cdccca;fill-opacity:1;fill-rule:evenodd;stroke:none"
       d="m 395.005,350.114 91.063,-0.049 -0.003,-6.05 -91.063,0.05 0.003,6.049" /><path
       inkscape:connector-curvature="0"
       id="path152"
       style="fill:#cdccca;fill-opacity:1;fill-rule:evenodd;stroke:none"
       d="m 394.999,339.527 91.066,-0.05 -0.007,-6.05 -91.062,0.05 0.003,6.05" /><path
       inkscape:connector-curvature="0"
       id="path154"
       style="fill:#cdccca;fill-opacity:1;fill-rule:evenodd;stroke:none"
       d="m 394.993,328.938 91.063,-0.047 -0.003,-6.053 -91.063,0.05 0.003,6.05" /><path
       inkscape:connector-curvature="0"
       id="path156"
       style="fill:#cdccca;fill-opacity:1;fill-rule:evenodd;stroke:none"
       d="m 394.987,318.351 91.064,-0.051 -0.002,-6.048 -91.065,0.048 0.003,6.051" /><path
       inkscape:connector-curvature="0"
       id="path158"
       style="fill:#cdccca;fill-opacity:1;fill-rule:evenodd;stroke:none"
       d="m 394.982,307.763 91.061,-0.052 -0.002,-6.049 -91.063,0.05 0.004,6.051" /><path
       inkscape:connector-curvature="0"
       id="path160"
       style="fill:#cdccca;fill-opacity:1;fill-rule:evenodd;stroke:none"
       d="m 394.976,297.174 91.063,-0.051 -0.005,-6.05 -91.063,0.049 0.005,6.052" /><path
       inkscape:connector-curvature="0"
       id="path162"
       style="fill:#cdccca;fill-opacity:1;fill-rule:evenodd;stroke:none"
       d="m 394.967,286.586 91.065,-0.049 -0.004,-6.053 -91.062,0.052 10e-4,6.05" /><path
       inkscape:connector-curvature="0"
       id="path164"
       style="fill:#cdccca;fill-opacity:1;fill-rule:evenodd;stroke:none"
       d="m 394.964,275.996 64.097,-0.034 -0.002,-6.05 -64.098,0.035 0.003,6.049" /><path
       inkscape:connector-curvature="0"
       id="path166"
       style="fill:#f9ba0b;fill-opacity:1;fill-rule:nonzero;stroke:none"
       d="m 300.741,460.588 -5.585,7.568 69.301,51.112 45.043,-30.793 71.932,49.256 5.309,-7.757 -77.239,-52.892 -44.838,30.653 -63.923,-47.147" /><path
       inkscape:connector-curvature="0"
       id="path168"
       style="fill:#f9ba0b;fill-opacity:1;fill-rule:nonzero;stroke:none"
       d="m 487.398,513.502 -7.525,0 0,16.59 -16.59,0 0,7.522 24.115,0 0,-24.112" /><path
       inkscape:connector-curvature="0"
       id="path170"
       style="fill:#45b5bf;fill-opacity:1;fill-rule:nonzero;stroke:none"
       d="m 419.247,484.544 c 0,5.713 -4.634,10.344 -10.344,10.344 -5.711,0 -10.343,-4.631 -10.343,-10.344 0,-5.711 4.632,-10.343 10.343,-10.343 5.71,0 10.344,4.632 10.344,10.343" /><path
       inkscape:connector-curvature="0"
       id="path172"
       style="fill:#45b5bf;fill-opacity:1;fill-rule:nonzero;stroke:none"
       d="m 375.059,513.502 c 0,5.712 -4.63,10.343 -10.344,10.343 -5.712,0 -10.342,-4.631 -10.342,-10.343 0,-5.713 4.63,-10.344 10.342,-10.344 5.714,0 10.344,4.631 10.344,10.344" /><path
       inkscape:connector-curvature="0"
       id="path174"
       style="fill:#ffffff;fill-opacity:1;fill-rule:nonzero;stroke:none"
       d="m 403.654,350.148 c 0.005,0.005 0.01,0.01 0.015,0.014 -0.005,-0.004 -0.01,-0.009 -0.015,-0.014 m 0.055,0.052 c 0.007,0.007 0.014,0.013 0.02,0.019 -0.007,-0.007 -0.013,-0.012 -0.02,-0.019 m 0.055,0.052 c 0.008,0.007 0.015,0.014 0.022,0.021 -0.007,-0.007 -0.015,-0.015 -0.022,-0.021 m 0.057,0.053 c 0.008,0.007 0.015,0.013 0.023,0.021 -0.008,-0.007 -0.016,-0.014 -0.023,-0.021 m 0.056,0.052 c 0.008,0.007 0.015,0.014 0.023,0.021 -0.008,-0.007 -0.015,-0.013 -0.023,-0.021 m 0.054,0.05 c 0.042,0.039 0.084,0.078 0.126,0.116 -0.042,-0.038 -0.084,-0.077 -0.126,-0.116 m 0.133,0.123 c 0.014,0.013 0.029,0.027 0.043,0.04 -0.014,-0.013 -0.028,-0.026 -0.043,-0.04 m 0.055,0.051 c 0.016,0.015 0.031,0.028 0.047,0.043 -0.016,-0.015 -0.031,-0.028 -0.047,-0.043 m 0.052,0.048 c 0.016,0.014 0.033,0.029 0.048,0.044 -0.016,-0.015 -0.031,-0.029 -0.048,-0.044 m 0.055,0.05 c 0.016,0.015 0.032,0.029 0.049,0.044 -0.017,-0.015 -0.033,-0.029 -0.049,-0.044" /><path
       inkscape:connector-curvature="0"
       id="path176"
       style="fill:#d3d2d0;fill-opacity:1;fill-rule:nonzero;stroke:none"
       d="m 402.553,349.082 c 0.004,0.004 0.01,0.01 0.014,0.014 -0.005,-0.005 -0.009,-0.009 -0.014,-0.014 m 0.056,0.056 c 0.005,0.004 0.01,0.01 0.015,0.015 -0.005,-0.005 -0.01,-0.011 -0.015,-0.015 m 0.055,0.054 c 0.006,0.006 0.011,0.011 0.017,0.017 -0.006,-0.005 -0.011,-0.011 -0.017,-0.017 m 0.057,0.057 c 0.005,0.005 0.009,0.009 0.014,0.014 -0.005,-0.005 -0.009,-0.009 -0.014,-0.014 m 0.056,0.056 c 0.005,0.004 0.01,0.009 0.015,0.014 -0.005,-0.005 -0.01,-0.01 -0.015,-0.014 m 0.06,0.058 c 0.003,0.003 0.006,0.006 0.009,0.009 -0.003,-0.003 -0.006,-0.006 -0.009,-0.009 m 0.06,0.059 c 0.002,0.002 0.004,0.004 0.005,0.005 -10e-4,-0.002 -0.003,-0.003 -0.005,-0.005 m 0.234,0.227 c 0.002,0.003 0.004,0.005 0.007,0.007 -0.002,-0.002 -0.005,-0.004 -0.007,-0.007 m 0.057,0.056 c 0.003,0.003 0.005,0.004 0.008,0.007 -0.003,-0.002 -0.005,-0.005 -0.008,-0.007 m 0.056,0.053 c 0.003,0.004 0.007,0.007 0.011,0.011 -0.004,-0.004 -0.007,-0.007 -0.011,-0.011 m 0.057,0.055 c 0.004,0.004 0.007,0.007 0.011,0.011 -0.004,-0.004 -0.007,-0.007 -0.011,-0.011 m 0.06,0.057 c 0.002,0.002 0.005,0.005 0.007,0.008 -0.002,-0.003 -0.005,-0.006 -0.007,-0.008 m 0.236,0.225 c 0.005,0.004 0.008,0.007 0.012,0.011 -0.004,-0.004 -0.007,-0.007 -0.012,-0.011" /><path
       inkscape:connector-curvature="0"
       id="path178"
       style="fill:#ffffff;fill-opacity:1;fill-rule:nonzero;stroke:none"
       d="m 439.034,260.801 0,0 c -0.035,0 -0.071,0 -0.105,0 0.034,0 0.067,0 0.101,0 12.186,0 23.733,4.206 33.016,11.94 -3.62,-3.012 -7.586,-5.486 -11.797,-7.391 -3.691,-0.826 -7.503,-1.257 -11.37,-1.257 -0.013,0 -0.027,0 -0.04,0 -8.561,0.017 -16.639,2.125 -23.75,5.838 l 33.97,-0.019 0.002,6.05 -43.075,0.023 c -1.702,1.411 -3.311,2.928 -4.819,4.542 l 68.449,-0.039 c -1.245,-1.57 -2.588,-3.077 -4.026,-4.515 l 0,0 c -9.794,-9.787 -22.761,-15.169 -36.545,-15.172 -0.004,0 -0.007,0 -0.011,0 m 44.72,25.737 -77.45,0.042 c -1.004,1.46 -1.935,2.975 -2.787,4.538 l 82.517,-0.045 0.005,6.05 -85.331,0.048 c -0.573,1.48 -1.081,2.997 -1.518,4.539 l 86.851,-0.048 0.002,6.049 -88.179,0.05 c -0.233,1.492 -0.403,3.007 -0.505,4.538 l 88.69,-0.047 0.002,6.048 -88.745,0.049 c 0.074,1.526 0.215,3.039 0.42,4.537 l 88.327,-0.048 0.003,6.053 -87.129,0.045 c 0.403,1.536 0.875,3.05 1.417,4.538 l 79.573,-0.044 c 1.371,-1.198 2.674,-2.459 3.9,-3.77 -0.782,1.295 -1.62,2.553 -2.51,3.769 l 4.751,-0.002 0,0.587 c 3.071,-6.675 4.687,-13.985 4.684,-21.539 0,-0.027 0,-0.053 0,-0.08 -0.016,-9.223 -2.445,-18.081 -6.988,-25.857 m -0.623,52.94 -7.023,0.004 c -1.631,1.624 -3.376,3.141 -5.225,4.541 l 9.104,-0.005 c 1.133,-1.463 2.182,-2.979 3.144,-4.54 m -11.703,0.007 -51.025,0.028 c 2.816,1.601 5.822,2.959 9.005,4.03 0.523,0.176 1.047,0.343 1.573,0.502 l 29.894,-0.016 c 2.695,-0.823 5.342,-1.871 7.919,-3.143 0.893,-0.441 1.772,-0.909 2.634,-1.401 m -58.463,0.032 -9.963,0.006 c 0.805,1.552 1.692,3.067 2.658,4.536 l 5.593,-0.003 1.712,-4.539 m 61.533,10.555 -13.872,0.007 c -6.71,2.996 -13.852,4.507 -21.025,4.507 -5.543,0 -11.104,-0.901 -16.501,-2.717 -1.551,-0.522 -3.061,-1.113 -4.528,-1.767 l -8.27,0.004 c 0.675,0.758 1.374,1.499 2.097,2.222 4.505,4.511 9.689,8.065 15.316,10.61 2.299,0.514 4.64,0.876 7.015,1.074 -11.35,-0.936 -21.965,-5.553 -30.452,-13.286 9.55,8.702 21.795,13.464 34.747,13.467 0.003,0 0.007,0 0.01,0 0.028,0 0.054,0 0.082,-10e-4 13.262,-0.027 25.761,-5.024 35.381,-14.12" /><path
       inkscape:connector-curvature="0"
       id="path180"
       style="fill:#d3d2d0;fill-opacity:1;fill-rule:nonzero;stroke:none"
       d="m 479.987,344.018 -9.104,0.005 c -2.599,1.967 -5.403,3.703 -8.393,5.18 -0.617,0.305 -1.239,0.597 -1.864,0.876 l 13.872,-0.007 c 0.384,-0.363 0.764,-0.734 1.139,-1.11 1.564,-1.569 3.016,-3.221 4.35,-4.944 m -19.112,0.011 -29.894,0.016 c 4.905,1.483 9.931,2.221 14.939,2.221 5.048,0 10.079,-0.749 14.955,-2.237 m -49.622,0.027 -5.593,0.003 c 1.386,2.111 2.936,4.133 4.642,6.047 l 8.27,-0.004 c -2.808,-1.253 -5.455,-2.736 -7.934,-4.414 l 0.615,-1.632" /><path
       inkscape:connector-curvature="0"
       id="path182"
       style="fill:#d3d2d0;fill-opacity:1;fill-rule:nonzero;stroke:none"
       d="m 486.058,333.427 -4.751,0.002 c -1.573,2.151 -3.311,4.173 -5.199,6.053 l 7.023,-0.004 c 1.089,-1.766 2.065,-3.589 2.927,-5.464 l 0,-0.587 m -6.141,0.003 -79.573,0.044 c 0.754,2.07 1.641,4.09 2.658,6.049 l 9.963,-0.006 1.491,-3.953 c 1.873,1.44 3.857,2.761 5.947,3.949 l 51.025,-0.028 c 3.043,-1.737 5.889,-3.784 8.489,-6.055" /><path
       inkscape:connector-curvature="0"
       id="path184"
       style="fill:#d3d2d0;fill-opacity:1;fill-rule:nonzero;stroke:none"
       d="m 486.053,322.838 -88.327,0.048 c 0.281,2.048 0.682,4.068 1.201,6.05 l 87.129,-0.045 -0.003,-6.053" /><path
       inkscape:connector-curvature="0"
       id="path186"
       style="fill:#d3d2d0;fill-opacity:1;fill-rule:nonzero;stroke:none"
       d="m 486.049,312.252 -88.69,0.047 c -0.079,1.183 -0.118,2.376 -0.116,3.58 0.002,0.827 0.023,1.65 0.063,2.47 l 88.745,-0.049 -0.002,-6.048" /><path
       inkscape:connector-curvature="0"
       id="path188"
       style="fill:#d3d2d0;fill-opacity:1;fill-rule:nonzero;stroke:none"
       d="m 486.041,301.662 -86.851,0.048 c -0.56,1.973 -1.003,3.991 -1.326,6.051 l 88.179,-0.05 -0.002,-6.049" /><path
       inkscape:connector-curvature="0"
       id="path190"
       style="fill:#d3d2d0;fill-opacity:1;fill-rule:nonzero;stroke:none"
       d="m 486.034,291.073 -82.517,0.045 c -1.062,1.946 -2.001,3.966 -2.809,6.053 l 85.331,-0.048 -0.005,-6.05" /><path
       inkscape:connector-curvature="0"
       id="path192"
       style="fill:#d3d2d0;fill-opacity:1;fill-rule:nonzero;stroke:none"
       d="m 479.616,280.488 -68.449,0.039 c -1.767,1.892 -3.393,3.913 -4.863,6.053 l 77.45,-0.042 c -1.227,-2.1 -2.608,-4.122 -4.138,-6.05" /><path
       inkscape:connector-curvature="0"
       id="path194"
       style="fill:#d3d2d0;fill-opacity:1;fill-rule:nonzero;stroke:none"
       d="m 459.059,269.912 -33.97,0.019 c -3.252,1.697 -6.302,3.732 -9.103,6.054 l 43.075,-0.023 -0.002,-6.05" /><path
       inkscape:connector-curvature="0"
       id="path196"
       style="fill:#ace1eb;fill-opacity:1;fill-rule:nonzero;stroke:none"
       d="m 472.135,272.816 c 0.574,0.479 1.14,0.972 1.695,1.479 -0.555,-0.507 -1.121,-1 -1.695,-1.479" /><path
       inkscape:connector-curvature="0"
       id="path198"
       style="fill:#ace1eb;fill-opacity:1;fill-rule:nonzero;stroke:none"
       d="m 473.943,274.398 c 0.558,0.512 1.108,1.036 1.647,1.575 -0.539,-0.539 -1.09,-1.063 -1.647,-1.575" /><path
       inkscape:connector-curvature="0"
       id="path200"
       style="fill:#ffffff;fill-opacity:1;fill-rule:nonzero;stroke:none"
       d="m 439.03,260.801 c -0.034,0 -0.067,0 -0.101,0 l 0,0 c -10.85,0.017 -20.922,3.392 -29.235,9.138 l 15.395,-0.008 c 7.111,-3.713 15.189,-5.821 23.75,-5.838 0.013,0 0.027,0 0.04,0 3.867,0 7.679,0.431 11.37,1.257 4.211,1.905 8.177,4.379 11.797,7.391 -9.283,-7.734 -20.83,-11.94 -33.016,-11.94 m -23.044,15.184 -13.541,0.007 c -1.43,1.433 -2.777,2.951 -4.032,4.542 l 12.754,-0.007 c 1.508,-1.614 3.117,-3.131 4.819,-4.542 m -21.019,9.482 c -4.843,7.87 -7.638,17.129 -7.635,27.026 0,0.028 0.001,0.055 0.001,0.083 0.025,11.53 3.815,22.497 10.787,31.488 l 7.54,-0.005 c -0.966,-1.469 -1.853,-2.984 -2.658,-4.536 l -8.003,0.004 -0.003,-6.05 5.348,-0.003 c -0.542,-1.488 -1.014,-3.002 -1.417,-4.538 l -3.934,0.002 -0.003,-6.05 2.736,-0.002 c -0.205,-1.498 -0.346,-3.011 -0.42,-4.537 l -2.319,0.002 -0.003,-6.051 2.375,-0.001 c 0.102,-1.531 0.272,-3.046 0.505,-4.538 l -2.882,0.002 -0.004,-6.051 4.212,-0.002 c 0.437,-1.542 0.945,-3.059 1.518,-4.539 l -5.732,0.003 -0.005,-6.052 8.546,-0.004 c 0.852,-1.563 1.783,-3.078 2.787,-4.538 l -11.337,0.006 0,-1.119 m 15.335,64.639 -6.689,0.004 c 0.013,0.012 0.027,0.026 0.041,0.038 0.005,0.005 0.01,0.01 0.015,0.014 0.013,0.013 0.027,0.026 0.04,0.038 0.007,0.007 0.013,0.012 0.02,0.019 0.012,0.011 0.023,0.022 0.035,0.033 0.007,0.006 0.015,0.014 0.022,0.021 0.011,0.01 0.024,0.021 0.035,0.032 0.007,0.007 0.015,0.014 0.023,0.021 0.011,0.01 0.022,0.021 0.033,0.031 0.008,0.008 0.015,0.014 0.023,0.021 0.01,0.01 0.02,0.019 0.031,0.029 0.042,0.039 0.084,0.078 0.126,0.116 0.002,0.003 0.005,0.005 0.007,0.007 0.015,0.014 0.029,0.027 0.043,0.04 0.004,0.004 0.008,0.007 0.012,0.011 0.016,0.015 0.031,0.028 0.047,0.043 0.002,10e-4 0.004,0.003 0.005,0.005 0.017,0.015 0.032,0.029 0.048,0.044 0.003,0.002 0.005,0.004 0.007,0.006 0.016,0.015 0.032,0.029 0.049,0.044 0.001,10e-4 0.002,0.002 0.003,0.003 8.487,7.733 19.102,12.35 30.452,13.286 -2.375,-0.198 -4.716,-0.56 -7.015,-1.074 -5.627,-2.545 -10.811,-6.099 -15.316,-10.61 -0.723,-0.723 -1.422,-1.464 -2.097,-2.222" /><path
       inkscape:connector-curvature="0"
       id="path202"
       style="fill:#f0f0ef;fill-opacity:1;fill-rule:nonzero;stroke:none"
       d="m 405.66,344.059 -7.54,0.005 c 1.343,1.731 2.803,3.389 4.378,4.963 0.019,0.019 0.036,0.037 0.055,0.055 0.005,0.005 0.009,0.009 0.014,0.014 0.014,0.014 0.027,0.027 0.042,0.042 0.005,0.004 0.01,0.01 0.015,0.015 0.013,0.013 0.027,0.026 0.04,0.039 0.006,0.006 0.011,0.012 0.017,0.017 0.013,0.013 0.027,0.027 0.04,0.04 0.005,0.005 0.009,0.009 0.014,0.014 0.014,0.014 0.029,0.028 0.042,0.042 0.005,0.004 0.01,0.009 0.015,0.014 0.015,0.014 0.03,0.029 0.045,0.044 0.003,0.003 0.006,0.006 0.009,0.009 0.018,0.017 0.034,0.033 0.051,0.05 0.002,0.002 0.004,0.003 0.005,0.005 0.076,0.074 0.152,0.149 0.229,0.222 0.002,0.003 0.005,0.005 0.007,0.007 0.016,0.016 0.034,0.033 0.05,0.049 0.003,0.002 0.005,0.005 0.008,0.007 0.016,0.016 0.032,0.031 0.048,0.046 0.004,0.004 0.007,0.007 0.011,0.011 0.015,0.015 0.031,0.03 0.046,0.044 0.004,0.004 0.007,0.007 0.011,0.011 0.017,0.016 0.032,0.03 0.049,0.046 0.002,0.002 0.005,0.005 0.007,0.008 0.076,0.072 0.153,0.145 0.229,0.217 0.005,0.004 0.008,0.007 0.012,0.011 0.002,0.002 0.003,0.003 0.004,0.004 l 6.689,-0.004 c -1.706,-1.914 -3.256,-3.936 -4.642,-6.047" /><path
       inkscape:connector-curvature="0"
       id="path204"
       style="fill:#f0f0ef;fill-opacity:1;fill-rule:nonzero;stroke:none"
       d="m 400.344,333.474 -5.348,0.003 0.003,6.05 8.003,-0.004 c -1.017,-1.959 -1.904,-3.979 -2.658,-6.049" /><path
       inkscape:connector-curvature="0"
       id="path206"
       style="fill:#f0f0ef;fill-opacity:1;fill-rule:nonzero;stroke:none"
       d="m 397.726,322.886 -2.736,0.002 0.003,6.05 3.934,-0.002 c -0.519,-1.982 -0.92,-4.002 -1.201,-6.05" /><path
       inkscape:connector-curvature="0"
       id="path208"
       style="fill:#f0f0ef;fill-opacity:1;fill-rule:nonzero;stroke:none"
       d="m 397.359,312.299 -2.375,0.001 0.003,6.051 2.319,-0.002 c -0.04,-0.82 -0.061,-1.643 -0.063,-2.47 -0.002,-1.204 0.037,-2.397 0.116,-3.58" /><path
       inkscape:connector-curvature="0"
       id="path210"
       style="fill:#f0f0ef;fill-opacity:1;fill-rule:nonzero;stroke:none"
       d="m 399.19,301.71 -4.212,0.002 0.004,6.051 2.882,-0.002 c 0.323,-2.06 0.766,-4.078 1.326,-6.051" /><path
       inkscape:connector-curvature="0"
       id="path212"
       style="fill:#f0f0ef;fill-opacity:1;fill-rule:nonzero;stroke:none"
       d="m 403.517,291.118 -8.546,0.004 0.005,6.052 5.732,-0.003 c 0.808,-2.087 1.747,-4.107 2.809,-6.053" /><path
       inkscape:connector-curvature="0"
       id="path214"
       style="fill:#f0f0ef;fill-opacity:1;fill-rule:nonzero;stroke:none"
       d="m 411.167,280.527 -12.754,0.007 c -1.241,1.574 -2.391,3.22 -3.446,4.933 l 0,1.119 11.337,-0.006 c 1.47,-2.14 3.096,-4.161 4.863,-6.053" /><path
       inkscape:connector-curvature="0"
       id="path216"
       style="fill:#f0f0ef;fill-opacity:1;fill-rule:nonzero;stroke:none"
       d="m 425.089,269.931 -15.395,0.008 c -2.598,1.796 -5.024,3.824 -7.249,6.053 l 13.541,-0.007 c 2.801,-2.322 5.851,-4.357 9.103,-6.054" /><path
       inkscape:connector-curvature="0"
       id="path218"
       style="fill:#ace1eb;fill-opacity:1;fill-rule:nonzero;stroke:none"
       d="m 434.82,364.02 c 0.407,0.032 0.815,0.059 1.224,0.084 -0.409,-0.026 -0.816,-0.051 -1.224,-0.084" /><path
       inkscape:connector-curvature="0"
       id="path220"
       style="fill:#ace1eb;fill-opacity:1;fill-rule:nonzero;stroke:none"
       d="m 436.3,364.118 c 0.365,0.019 0.73,0.033 1.096,0.044 -0.366,-0.011 -0.731,-0.024 -1.096,-0.044" /><path
       inkscape:connector-curvature="0"
       id="path222"
       style="fill:#ace1eb;fill-opacity:1;fill-rule:nonzero;stroke:none"
       d="m 437.729,364.174 c 0.461,0.012 0.924,0.018 1.388,0.018 -0.464,0 -0.927,-0.006 -1.388,-0.018" /><path
       inkscape:connector-curvature="0"
       id="path224"
       style="fill:#192c3a;fill-opacity:1;fill-rule:nonzero;stroke:none"
       d="m 502.651,248.334 c -3.469,-3.467 -9.097,-3.45 -12.561,0.024 l -11.072,11.431 c -3.456,3.477 -3.453,9.09 0.007,12.55 l 0.028,0.015 c 3.472,3.462 9.096,3.455 12.561,-0.028 l 11.072,-11.427 c 3.456,-3.469 3.452,-9.087 -0.013,-12.549 l -0.022,-0.016" /><path
       inkscape:connector-curvature="0"
       id="path226"
       style="fill:#2f5371;fill-opacity:1;fill-rule:nonzero;stroke:none"
       d="m 387.333,312.576 c 0.03,13.75 5.414,26.7 15.165,36.451 9.806,9.801 22.812,15.187 36.619,15.165 13.791,-0.028 26.759,-5.431 36.52,-15.23 9.763,-9.795 15.131,-22.778 15.105,-36.567 -0.024,-13.742 -5.405,-26.675 -15.152,-36.422 -9.822,-9.815 -22.833,-15.2 -36.661,-15.172 -28.506,0.044 -51.65,23.273 -51.596,51.775 m -17.771,0.032 c -0.071,-38.295 31.037,-69.516 69.337,-69.585 18.585,-0.031 36.083,7.204 49.254,20.378 l 0,0.006 c 13.099,13.093 20.322,30.484 20.353,48.958 0.037,18.531 -7.17,35.986 -20.281,49.143 -13.113,13.155 -30.544,20.422 -49.071,20.454 -18.579,0.026 -36.057,-7.2 -49.227,-20.366 -13.099,-13.104 -20.336,-30.504 -20.365,-48.988" /><path
       inkscape:connector-curvature="0"
       id="path228"
       style="fill:#1b3451;fill-opacity:1;fill-rule:nonzero;stroke:none"
       d="m 483.301,242.577 25.266,25.267 79.128,-79.127 -25.266,-25.268 -79.128,79.128" /><path
       inkscape:connector-curvature="0"
       id="path230"
       style="fill:#2f5371;fill-opacity:1;fill-rule:nonzero;stroke:none"
       d="m 488.534,247.812 14.798,14.798 79.128,-79.129 -14.797,-14.796 -79.129,79.127" /><path
       inkscape:connector-curvature="0"
       id="path232"
       style="fill:#192c3a;fill-opacity:1;fill-rule:nonzero;stroke:none"
       d="m 550.292,175.585 25.268,25.268 12.135,-12.136 -25.266,-25.268 -12.137,12.136" /><path
       inkscape:connector-curvature="0"
       id="path234"
       style="fill:#224465;fill-opacity:1;fill-rule:nonzero;stroke:none"
       d="m 555.526,180.821 14.798,14.797 12.136,-12.137 -14.797,-14.796 -12.137,12.136" /><path
       inkscape:connector-curvature="0"
       id="path236"
       style="fill:#ffffff;fill-opacity:1;fill-rule:nonzero;stroke:none"
       d="m 483.817,329.66 c -1.226,1.311 -2.529,2.572 -3.9,3.77 l 1.39,-0.001 c 0.89,-1.216 1.728,-2.474 2.51,-3.769 m -7.709,9.822 -4.68,0.003 c -0.862,0.492 -1.741,0.96 -2.634,1.401 -2.577,1.272 -5.224,2.32 -7.919,3.143 l 10.008,-0.006 c 1.849,-1.4 3.594,-2.917 5.225,-4.541 m -55.705,0.031 -7.438,0.004 -1.712,4.539 19.728,-0.011 c -0.526,-0.159 -1.05,-0.326 -1.573,-0.502 -3.183,-1.071 -6.189,-2.429 -9.005,-4.03 m 40.223,10.566 -42.054,0.023 c 1.467,0.654 2.977,1.245 4.528,1.767 5.397,1.816 10.958,2.717 16.501,2.717 7.173,0 14.315,-1.511 21.025,-4.507" /><path
       inkscape:connector-curvature="0"
       id="path238"
       style="fill:#f0f0ef;fill-opacity:1;fill-rule:nonzero;stroke:none"
       d="m 470.883,344.023 -10.008,0.006 c -4.876,1.488 -9.907,2.237 -14.955,2.237 -5.008,0 -10.034,-0.738 -14.939,-2.221 l -19.728,0.011 -0.615,1.632 c 2.479,1.678 5.126,3.161 7.934,4.414 l 42.054,-0.023 c 0.625,-0.279 1.247,-0.571 1.864,-0.876 2.99,-1.477 5.794,-3.213 8.393,-5.18" /><path
       inkscape:connector-curvature="0"
       id="path240"
       style="fill:#f0f0ef;fill-opacity:1;fill-rule:nonzero;stroke:none"
       d="m 481.307,333.429 -1.39,0.001 c -2.6,2.271 -5.446,4.318 -8.489,6.055 l 4.68,-0.003 c 1.888,-1.88 3.626,-3.902 5.199,-6.053 m -66.851,2.135 -1.491,3.953 7.438,-0.004 c -2.09,-1.188 -4.074,-2.509 -5.947,-3.949" /><path
       inkscape:connector-curvature="0"
       id="path242"
       style="fill:#5d7895;fill-opacity:1;fill-rule:nonzero;stroke:none"
       d="m 653.724,367.017 -106.498,0 0,-101.562 c 0,-1.263 0.482,-2.526 1.45,-3.488 0.962,-0.96 2.222,-1.443 3.485,-1.443 l 96.631,0 c 1.26,0 2.521,0.483 3.486,1.443 0.959,0.962 1.446,2.225 1.446,3.488 l 0,101.562" /><path
       inkscape:connector-curvature="0"
       id="path244"
       style="fill:#6d859f;fill-opacity:1;fill-rule:nonzero;stroke:none"
       d="m 653.724,277.663 -93.026,89.354 93.026,0 0,-89.354" /><path
       inkscape:connector-curvature="0"
       id="path246"
       style="fill:#63cbcf;fill-opacity:1;fill-rule:nonzero;stroke:none"
       d="m 595.372,344.168 c 0,-0.476 -0.391,-0.865 -0.862,-0.865 l -35.477,0 c -0.474,0 -0.86,0.389 -0.86,0.865 l 0,11.416 c 0,0.469 0.386,0.859 0.86,0.859 l 35.477,0 c 0.471,0 0.862,-0.39 0.862,-0.859 l 0,-11.416" /><path
       inkscape:connector-curvature="0"
       id="path248"
       style="fill:#e63820;fill-opacity:1;fill-rule:nonzero;stroke:none"
       d="m 619.441,344.168 c 0,-0.476 -0.389,-0.865 -0.865,-0.865 l -11.403,0 c -0.473,0 -0.86,0.389 -0.86,0.865 l 0,11.416 c 0,0.469 0.387,0.859 0.86,0.859 l 11.403,0 c 0.476,0 0.865,-0.39 0.865,-0.859 l 0,-11.416" /><path
       inkscape:connector-curvature="0"
       id="path250"
       style="fill:#f6fbfe;fill-opacity:1;fill-rule:nonzero;stroke:none"
       d="m 643.504,344.168 c 0,-0.476 -0.385,-0.865 -0.858,-0.865 l -11.408,0 c -0.47,0 -0.856,0.389 -0.856,0.865 l 0,11.416 c 0,0.469 0.386,0.859 0.856,0.859 l 11.408,0 c 0.473,0 0.858,-0.39 0.858,-0.859 l 0,-11.416" /><path
       inkscape:connector-curvature="0"
       id="path252"
       style="fill:#f6fbfe;fill-opacity:1;fill-rule:nonzero;stroke:none"
       d="m 571.299,320.093 c 0,-0.47 -0.382,-0.855 -0.857,-0.855 l -11.409,0 c -0.474,0 -0.86,0.385 -0.86,0.855 l 0,11.415 c 0,0.475 0.386,0.859 0.86,0.859 l 11.409,0 c 0.475,0 0.857,-0.384 0.857,-0.859 l 0,-11.415" /><path
       inkscape:connector-curvature="0"
       id="path254"
       style="fill:#f6fbfe;fill-opacity:1;fill-rule:nonzero;stroke:none"
       d="m 595.372,320.093 c 0,-0.47 -0.391,-0.855 -0.862,-0.855 l -11.407,0 c -0.476,0 -0.863,0.385 -0.863,0.855 l 0,11.415 c 0,0.475 0.387,0.859 0.863,0.859 l 11.407,0 c 0.471,0 0.862,-0.384 0.862,-0.859 l 0,-11.415" /><path
       inkscape:connector-curvature="0"
       id="path256"
       style="fill:#f6fbfe;fill-opacity:1;fill-rule:nonzero;stroke:none"
       d="m 619.441,320.093 c 0,-0.47 -0.389,-0.855 -0.865,-0.855 l -11.403,0 c -0.473,0 -0.86,0.385 -0.86,0.855 l 0,11.415 c 0,0.475 0.387,0.859 0.86,0.859 l 11.403,0 c 0.476,0 0.865,-0.384 0.865,-0.859 l 0,-11.415" /><path
       inkscape:connector-curvature="0"
       id="path258"
       style="fill:#f6fbfe;fill-opacity:1;fill-rule:nonzero;stroke:none"
       d="m 643.504,320.093 c 0,-0.47 -0.385,-0.855 -0.858,-0.855 l -11.408,0 c -0.47,0 -0.856,0.385 -0.856,0.855 l 0,11.415 c 0,0.475 0.386,0.859 0.856,0.859 l 11.408,0 c 0.473,0 0.858,-0.384 0.858,-0.859 l 0,-11.415" /><path
       inkscape:connector-curvature="0"
       id="path260"
       style="fill:#f6fbfe;fill-opacity:1;fill-rule:nonzero;stroke:none"
       d="m 571.299,296.028 c 0,-0.474 -0.382,-0.86 -0.857,-0.86 l -11.409,0 c -0.474,0 -0.86,0.386 -0.86,0.86 l 0,11.41 c 0,0.475 0.386,0.86 0.86,0.86 l 11.409,0 c 0.475,0 0.857,-0.385 0.857,-0.86 l 0,-11.41" /><path
       inkscape:connector-curvature="0"
       id="path262"
       style="fill:#f6fbfe;fill-opacity:1;fill-rule:nonzero;stroke:none"
       d="m 595.372,296.028 c 0,-0.474 -0.391,-0.86 -0.862,-0.86 l -11.407,0 c -0.476,0 -0.863,0.386 -0.863,0.86 l 0,11.41 c 0,0.475 0.387,0.86 0.863,0.86 l 11.407,0 c 0.471,0 0.862,-0.385 0.862,-0.86 l 0,-11.41" /><path
       inkscape:connector-curvature="0"
       id="path264"
       style="fill:#223249;fill-opacity:1;fill-rule:nonzero;stroke:none"
       d="m 619.441,296.028 c 0,-0.474 -0.389,-0.86 -0.865,-0.86 l -11.403,0 c -0.473,0 -0.86,0.386 -0.86,0.86 l 0,11.41 c 0,0.475 0.387,0.86 0.86,0.86 l 11.403,0 c 0.476,0 0.865,-0.385 0.865,-0.86 l 0,-11.41" /><path
       inkscape:connector-curvature="0"
       id="path266"
       style="fill:#f6fbfe;fill-opacity:1;fill-rule:nonzero;stroke:none"
       d="m 571.299,271.959 c 0,-0.476 -0.382,-0.86 -0.857,-0.86 l -11.409,0 c -0.474,0 -0.86,0.384 -0.86,0.86 l 0,11.404 c 0,0.475 0.386,0.866 0.86,0.866 l 11.409,0 c 0.475,0 0.857,-0.391 0.857,-0.866 l 0,-11.404" /><path
       inkscape:connector-curvature="0"
       id="path268"
       style="fill:#f6fbfe;fill-opacity:1;fill-rule:nonzero;stroke:none"
       d="m 595.372,271.959 c 0,-0.476 -0.391,-0.86 -0.862,-0.86 l -11.407,0 c -0.476,0 -0.863,0.384 -0.863,0.86 l 0,11.404 c 0,0.475 0.387,0.866 0.863,0.866 l 11.407,0 c 0.471,0 0.862,-0.391 0.862,-0.866 l 0,-11.404" /><path
       inkscape:connector-curvature="0"
       id="path270"
       style="fill:#223249;fill-opacity:1;fill-rule:nonzero;stroke:none"
       d="m 619.441,271.959 c 0,-0.476 -0.389,-0.86 -0.865,-0.86 l -11.403,0 c -0.473,0 -0.86,0.384 -0.86,0.86 l 0,11.404 c 0,0.475 0.387,0.866 0.86,0.866 l 11.403,0 c 0.476,0 0.865,-0.391 0.865,-0.866 l 0,-11.404" /><path
       inkscape:connector-curvature="0"
       id="path272"
       style="fill:#223249;fill-opacity:1;fill-rule:nonzero;stroke:none"
       d="m 643.504,271.959 c 0,-0.476 -0.385,-0.86 -0.858,-0.86 l -11.408,0 c -0.47,0 -0.856,0.384 -0.856,0.86 l 0,11.404 c 0,0.475 0.386,0.866 0.856,0.866 l 11.408,0 c 0.473,0 0.858,-0.391 0.858,-0.866 l 0,-11.404" /><path
       inkscape:connector-curvature="0"
       id="path274"
       style="fill:#223249;fill-opacity:1;fill-rule:nonzero;stroke:none"
       d="m 643.504,296.028 c 0,-0.474 -0.385,-0.86 -0.858,-0.86 l -11.408,0 c -0.47,0 -0.856,0.386 -0.856,0.86 l 0,11.41 c 0,0.475 0.386,0.86 0.856,0.86 l 11.408,0 c 0.473,0 0.858,-0.385 0.858,-0.86 l 0,-11.41" /><path
       inkscape:connector-curvature="0"
       id="path276"
       style="fill:#355172;fill-opacity:1;fill-rule:nonzero;stroke:none"
       d="m 653.725,409.484 c 0,1.266 -0.488,2.528 -1.447,3.491 -0.965,0.964 -2.226,1.445 -3.486,1.445 l -96.631,0 c -1.263,0 -2.523,-0.481 -3.485,-1.445 -0.968,-0.963 -1.45,-2.225 -1.45,-3.491 l 0,-42.467 106.499,0 0,42.467" /><path
       inkscape:connector-curvature="0"
       id="path278"
       style="fill:#2f496a;fill-opacity:1;fill-rule:nonzero;stroke:none"
       d="m 559.033,375.536 c -0.775,0 -1.51,0.301 -2.058,0.853 -0.55,0.549 -0.855,1.278 -0.855,2.056 l 0,24.538 c 0,0.776 0.305,1.509 0.855,2.056 0.548,0.547 1.283,0.854 2.058,0.854 l 83.613,0 c 0.784,0 1.52,-0.307 2.067,-0.86 0.542,-0.541 0.848,-1.274 0.848,-2.05 l 0,-24.538 c 0,-0.778 -0.306,-1.507 -0.853,-2.056 -0.542,-0.546 -1.278,-0.853 -2.062,-0.853 l -83.613,0" /><path
       inkscape:connector-curvature="0"
       id="path280"
       style="fill:#f9ba0b;fill-opacity:1;fill-rule:nonzero;stroke:none"
       d="m 559.033,403.843 c -0.22,0 -0.439,-0.084 -0.607,-0.252 -0.168,-0.168 -0.253,-0.389 -0.253,-0.608 l 0,-24.538 c 0,-0.216 0.085,-0.439 0.253,-0.607 0.168,-0.168 0.387,-0.253 0.607,-0.253 l 83.613,0 c 0.221,0 0.44,0.085 0.61,0.253 0.164,0.168 0.248,0.391 0.248,0.607 l 0,24.538 c 0,0.219 -0.084,0.44 -0.248,0.608 -0.17,0.168 -0.389,0.252 -0.61,0.252 l -83.613,0" /><path
       inkscape:connector-curvature="0"
       id="path282"
       style="fill:#2f496a;fill-opacity:1;fill-rule:nonzero;stroke:none"
       d="m 547.226,367.017 106.499,0 0,2.05 -106.499,0 0,-2.05 z" /></g></svg>