<?xml version="1.0" encoding="UTF-8" standalone="no"?>
<!-- Created with Inkscape (http://www.inkscape.org/) -->

<svg
   xmlns:dc="http://purl.org/dc/elements/1.1/"
   xmlns:cc="http://creativecommons.org/ns#"
   xmlns:rdf="http://www.w3.org/1999/02/22-rdf-syntax-ns#"
   xmlns:svg="http://www.w3.org/2000/svg"
   xmlns="http://www.w3.org/2000/svg"
   xmlns:sodipodi="http://sodipodi.sourceforge.net/DTD/sodipodi-0.dtd"
   xmlns:inkscape="http://www.inkscape.org/namespaces/inkscape"
   id="svg2"
   version="1.1"
   inkscape:version="0.91 r13725"
   xml:space="preserve"
   width="1500"
   height="1500"
   viewBox="0 0 1500 1500"
   sodipodi:docname="tasks.svg"><metadata
     id="metadata8"><rdf:RDF><cc:Work
         rdf:about=""><dc:format>image/svg+xml</dc:format><dc:type
           rdf:resource="http://purl.org/dc/dcmitype/StillImage" /><dc:title></dc:title></cc:Work></rdf:RDF></metadata><defs
     id="defs6" /><sodipodi:namedview
     pagecolor="#ffffff"
     bordercolor="#666666"
     borderopacity="1"
     objecttolerance="10"
     gridtolerance="10"
     guidetolerance="10"
     inkscape:pageopacity="0"
     inkscape:pageshadow="2"
     inkscape:window-width="1855"
     inkscape:window-height="1056"
     id="namedview4"
     showgrid="false"
     inkscape:zoom="0.62933333"
     inkscape:cx="996.48054"
     inkscape:cy="784.87089"
     inkscape:window-x="65"
     inkscape:window-y="24"
     inkscape:window-maximized="1"
     inkscape:current-layer="g10" /><g
     id="g10"
     inkscape:groupmode="layer"
     inkscape:label="ink_ext_XXXXXX"
     transform="matrix(1.25,0,0,-1.25,0,1500)"><path
       inkscape:connector-curvature="0"
       id="path14"
       style="fill:#a7ceb1;fill-opacity:1;fill-rule:nonzero;stroke:none"
       d="m 0,0 1200,0 0,1200 L 0,1200 0,0 Z" /><path
       inkscape:connector-curvature="0"
       id="path16"
       style="fill:#f8f8f8;fill-opacity:1;fill-rule:nonzero;stroke:none"
       d="M 275.634,191.45 425.721,260.535 361.467,372.822 245.906,335.001 275.634,191.45" /><path
       inkscape:connector-curvature="0"
       id="path18"
       style="fill:#464648;fill-opacity:1;fill-rule:nonzero;stroke:none"
       d="m 413.481,305.763 -106.93,-49.5 0.995,-2.146 104.869,48.546 1.066,3.1" /><path
       inkscape:connector-curvature="0"
       id="path20"
       style="fill:#464648;fill-opacity:1;fill-rule:nonzero;stroke:none"
       d="m 408.05,312.094 -104.87,-48.553 0.994,-2.142 106.928,49.502 -3.052,1.193" /><path
       inkscape:connector-curvature="0"
       id="path22"
       style="fill:#a94127;fill-opacity:1;fill-rule:nonzero;stroke:none"
       d="m 411.102,310.901 -106.928,-49.502 2.377,-5.136 106.93,49.5 -2.379,5.138" /><path
       inkscape:connector-curvature="0"
       id="path24"
       style="fill:#f09d35;fill-opacity:1;fill-rule:nonzero;stroke:none"
       d="m 307.546,254.117 0.89,3.018 -3.073,1.694 0.696,3.442 -2.879,1.27 -7.514,-7.011 1.672,-3.607 10.208,1.194" /><path
       inkscape:connector-curvature="0"
       id="path26"
       style="fill:#464648;fill-opacity:1;fill-rule:nonzero;stroke:none"
       d="m 297.338,252.923 -1.672,3.607 -4.662,-4.348 6.334,0.741" /><path
       inkscape:connector-curvature="0"
       id="path28"
       style="fill:#fbd6b1;fill-opacity:1;fill-rule:nonzero;stroke:none"
       d="m 301.794,337.401 c 0,0 21.366,-46.122 51.687,-23.557 30.32,22.566 -13.239,49.429 -13.239,49.429 l -38.448,-25.872" /><path
       inkscape:connector-curvature="0"
       id="path30"
       style="fill:#f8f8f8;fill-opacity:1;fill-rule:nonzero;stroke:none"
       d="m 340.475,370.322 7.413,-10.276 -44.493,-31.566 -7.831,13.398 44.911,28.444" /><path
       inkscape:connector-curvature="0"
       id="path32"
       style="fill:#f09d35;fill-opacity:1;fill-rule:nonzero;stroke:none"
       d="m 329.14,861.067 c -1.527,-13.074 -0.593,-30.645 2.805,-52.434 3.396,-21.787 7.856,-38.81 13.291,-50.797 14.772,-36.755 32.172,-32.069 37.704,-31.205 l 5.087,0.793 c 4.059,0.633 6.834,4.436 6.203,8.494 l -4.238,27.184 c -0.634,4.06 -4.437,6.836 -8.495,6.205 l -5.412,-0.863 c -7.478,-1.183 -11.398,1.391 -13.061,6.128 l -0.005,-0.004 c -2.889,8.61 -5.892,20.68 -8.527,37.581 -2.636,16.902 -3.448,29.313 -3.319,38.393 l 0.006,-0.003 c 0.143,5.019 3.092,8.665 10.577,9.814 l 5.416,0.827 c 4.058,0.632 6.835,4.436 6.202,8.495 l -4.239,27.186 c -0.632,4.057 -4.435,6.835 -8.492,6.202 l -5.089,-0.793 c -5.531,-0.864 -23.533,-1.696 -26.414,-41.203" /><path
       inkscape:connector-curvature="0"
       id="path34"
       style="fill:#fbd6b1;fill-opacity:1;fill-rule:nonzero;stroke:none"
       d="m 313.347,825.951 c 0,0 40.06,18.534 47.457,-13.439 7.396,-31.973 -36.538,-25.289 -36.538,-25.289 l -10.919,38.728" /><path
       inkscape:connector-curvature="0"
       id="path36"
       style="fill:#f8f8f8;fill-opacity:1;fill-rule:nonzero;stroke:none"
       d="m 304.671,825.421 9.312,2.724 12.007,-43.135 -8.229,-2.171 -13.09,42.582" /><path
       inkscape:connector-curvature="0"
       id="path38"
       style="fill:#464648;fill-opacity:1;fill-rule:nonzero;stroke:none"
       d="m 870.141,939.072 5.156,35.151 c 0.366,2.517 2.705,4.256 5.224,3.886 2.513,-0.366 4.255,-2.705 3.884,-5.222 l -5.151,-35.151 0.552,-21.485 -2.605,-17.772 -16.363,2.398 2.606,17.774 6.697,20.421" /><path
       inkscape:connector-curvature="0"
       id="path40"
       style="fill:#a94127;fill-opacity:1;fill-rule:nonzero;stroke:none"
       d="m 848.078,778.653 10.04,68.488 -7.723,20.809 5.061,34.523 36.024,-5.362 -22.571,-153.918 -36.022,5.362 1.535,10.462 13.656,19.636" /><path
       inkscape:connector-curvature="0"
       id="path42"
       style="fill:#f09d35;fill-opacity:1;fill-rule:nonzero;stroke:none"
       d="m 790.18,876.779 5.061,34.525 60.215,-8.831 -5.061,-34.523 7.723,-20.809 -10.04,-68.488 -13.656,-19.636 -1.535,-10.462 -60.213,8.83 1.534,10.461 13.651,19.637 10.045,68.488 -7.724,20.808" /><path
       inkscape:connector-curvature="0"
       id="path44"
       style="fill:#a94127;fill-opacity:1;fill-rule:nonzero;stroke:none"
       d="m 832.304,837.813 -0.959,-6.519 -12.763,1.874 0.954,6.516 12.768,-1.871" /><path
       inkscape:connector-curvature="0"
       id="path46"
       style="fill:#a94127;fill-opacity:1;fill-rule:nonzero;stroke:none"
       d="m 832.483,839.026 -12.77,1.871 0.955,6.519 12.77,-1.872 -0.955,-6.518" /><path
       inkscape:connector-curvature="0"
       id="path48"
       style="fill:#a94127;fill-opacity:1;fill-rule:nonzero;stroke:none"
       d="m 832.071,822.054 12.788,-1.875 -0.954,-6.521 -12.789,1.876 0.955,6.52" /><path
       inkscape:connector-curvature="0"
       id="path50"
       style="fill:#a94127;fill-opacity:1;fill-rule:nonzero;stroke:none"
       d="m 817.446,825.436 0.956,6.516 12.767,-1.872 -0.957,-6.516 -12.766,1.872" /><path
       inkscape:connector-curvature="0"
       id="path52"
       style="fill:#a94127;fill-opacity:1;fill-rule:nonzero;stroke:none"
       d="m 817.677,841.197 -12.786,1.873 0.958,6.519 12.786,-1.876 -0.958,-6.516" /><path
       inkscape:connector-curvature="0"
       id="path54"
       style="fill:#a94127;fill-opacity:1;fill-rule:nonzero;stroke:none"
       d="m 847.304,836.852 -12.788,1.876 0.957,6.516 12.786,-1.875 -0.955,-6.517" /><path
       inkscape:connector-curvature="0"
       id="path56"
       style="fill:#a94127;fill-opacity:1;fill-rule:nonzero;stroke:none"
       d="m 832.246,823.265 0.959,6.517 12.787,-1.875 -0.955,-6.515 -12.791,1.873" /><path
       inkscape:connector-curvature="0"
       id="path58"
       style="fill:#a94127;fill-opacity:1;fill-rule:nonzero;stroke:none"
       d="m 816.366,832.251 -0.956,-6.517 -12.785,1.876 0.954,6.515 12.787,-1.874" /><path
       inkscape:connector-curvature="0"
       id="path60"
       style="fill:#a94127;fill-opacity:1;fill-rule:nonzero;stroke:none"
       d="m 833.384,830.997 0.956,6.517 12.786,-1.875 -0.956,-6.518 -12.786,1.876" /><path
       inkscape:connector-curvature="0"
       id="path62"
       style="fill:#a94127;fill-opacity:1;fill-rule:nonzero;stroke:none"
       d="m 817.501,839.984 -0.957,-6.518 -12.787,1.874 0.956,6.518 12.788,-1.874" /><path
       inkscape:connector-curvature="0"
       id="path64"
       style="fill:#a94127;fill-opacity:1;fill-rule:nonzero;stroke:none"
       d="m 802.444,826.397 12.788,-1.874 -0.956,-6.521 -12.788,1.876 0.956,6.519" /><path
       inkscape:connector-curvature="0"
       id="path66"
       style="fill:#a94127;fill-opacity:1;fill-rule:nonzero;stroke:none"
       d="m 817.268,824.223 12.769,-1.871 -0.958,-6.519 -12.766,1.871 0.955,6.519" /><path
       inkscape:connector-curvature="0"
       id="path68"
       style="fill:#a94127;fill-opacity:1;fill-rule:nonzero;stroke:none"
       d="m 826.905,801.004 -0.955,-6.517 -12.766,1.872 0.957,6.518 12.764,-1.873" /><path
       inkscape:connector-curvature="0"
       id="path70"
       style="fill:#a94127;fill-opacity:1;fill-rule:nonzero;stroke:none"
       d="m 827.084,802.217 -12.768,1.872 0.955,6.518 12.768,-1.871 -0.955,-6.519" /><path
       inkscape:connector-curvature="0"
       id="path72"
       style="fill:#a94127;fill-opacity:1;fill-rule:nonzero;stroke:none"
       d="m 812.047,788.627 0.959,6.519 12.765,-1.871 -0.954,-6.52 -12.77,1.872" /><path
       inkscape:connector-curvature="0"
       id="path74"
       style="fill:#a94127;fill-opacity:1;fill-rule:nonzero;stroke:none"
       d="m 812.278,804.387 -12.786,1.876 0.957,6.517 12.787,-1.875 -0.958,-6.518" /><path
       inkscape:connector-curvature="0"
       id="path76"
       style="fill:#a94127;fill-opacity:1;fill-rule:nonzero;stroke:none"
       d="m 841.908,800.043 -12.79,1.875 0.957,6.519 12.785,-1.877 -0.952,-6.517" /><path
       inkscape:connector-curvature="0"
       id="path78"
       style="fill:#a94127;fill-opacity:1;fill-rule:nonzero;stroke:none"
       d="m 826.85,786.456 0.954,6.519 12.792,-1.874 -0.957,-6.519 -12.789,1.874" /><path
       inkscape:connector-curvature="0"
       id="path80"
       style="fill:#a94127;fill-opacity:1;fill-rule:nonzero;stroke:none"
       d="m 810.969,795.444 -0.956,-6.518 -12.786,1.876 0.957,6.519 12.785,-1.877" /><path
       inkscape:connector-curvature="0"
       id="path82"
       style="fill:#a94127;fill-opacity:1;fill-rule:nonzero;stroke:none"
       d="m 827.983,794.186 0.958,6.52 12.788,-1.875 -0.957,-6.518 -12.789,1.873" /><path
       inkscape:connector-curvature="0"
       id="path84"
       style="fill:#a94127;fill-opacity:1;fill-rule:nonzero;stroke:none"
       d="m 812.103,803.175 -0.955,-6.519 -12.789,1.875 0.958,6.519 12.786,-1.875" /><path
       inkscape:connector-curvature="0"
       id="path86"
       style="fill:#f8f8f8;fill-opacity:1;fill-rule:nonzero;stroke:none"
       d="m 799.353,885.36 c -0.425,-2.902 1.602,-5.622 4.501,-6.048 l 34.167,-5.01 c 2.901,-0.425 5.621,1.599 6.048,4.5 l 2.211,15.089 c 0.424,2.904 -1.601,5.624 -4.5,6.051 l -34.167,5.01 c -2.898,0.424 -5.621,-1.601 -6.046,-4.505 l -2.214,-15.087" /><path
       inkscape:connector-curvature="0"
       id="path88"
       style="fill:#a94127;fill-opacity:1;fill-rule:nonzero;stroke:none"
       d="m 838.153,893.99 c -0.66,0.097 -1.12,0.713 -1.023,1.376 0.097,0.66 0.713,1.118 1.377,1.021 0.661,-0.096 1.119,-0.712 1.022,-1.373 -0.099,-0.663 -0.715,-1.123 -1.376,-1.024 l 0,0 z m -7.193,1.056 c -0.659,0.095 -1.12,0.71 -1.022,1.375 0.094,0.66 0.713,1.118 1.372,1.021 0.664,-0.097 1.123,-0.713 1.027,-1.373 -0.099,-0.664 -0.714,-1.121 -1.377,-1.023 l 0,0 z m -7.197,1.054 c -0.657,0.096 -1.115,0.71 -1.02,1.375 0.097,0.661 0.712,1.119 1.375,1.022 0.662,-0.097 1.119,-0.712 1.023,-1.373 -0.098,-0.664 -0.713,-1.123 -1.378,-1.024 l 0,0 z m -7.19,1.052 c -0.661,0.098 -1.117,0.713 -1.022,1.377 0.099,0.663 0.713,1.12 1.377,1.023 0.661,-0.098 1.118,-0.714 1.022,-1.373 -0.098,-0.664 -0.714,-1.122 -1.377,-1.027 l 0,0 z m -7.191,1.055 c -0.662,0.099 -1.121,0.713 -1.025,1.378 0.096,0.661 0.715,1.118 1.378,1.022 0.66,-0.098 1.118,-0.713 1.02,-1.374 -0.096,-0.664 -0.711,-1.122 -1.373,-1.026 l 0,0" /><path
       inkscape:connector-curvature="0"
       id="path90"
       style="fill:#a94127;fill-opacity:1;fill-rule:nonzero;stroke:none"
       d="m 833.995,890.681 c -0.663,0.097 -1.123,0.713 -1.025,1.375 0.098,0.662 0.711,1.122 1.377,1.023 0.659,-0.097 1.118,-0.713 1.021,-1.375 -0.096,-0.661 -0.715,-1.119 -1.373,-1.023 l 0,0 z m -7.193,1.056 c -0.664,0.096 -1.122,0.711 -1.024,1.374 0.096,0.663 0.715,1.121 1.375,1.022 0.664,-0.097 1.12,-0.713 1.024,-1.374 -0.097,-0.662 -0.713,-1.12 -1.375,-1.022 l 0,0 z m -7.194,1.053 c -0.662,0.097 -1.12,0.714 -1.022,1.376 0.096,0.662 0.712,1.12 1.373,1.023 0.663,-0.097 1.121,-0.714 1.022,-1.377 -0.095,-0.659 -0.709,-1.118 -1.373,-1.022 l 0,0 z m -7.192,1.054 c -0.662,0.098 -1.12,0.714 -1.025,1.376 0.098,0.662 0.717,1.12 1.376,1.023 0.661,-0.097 1.12,-0.713 1.02,-1.375 -0.094,-0.662 -0.712,-1.12 -1.371,-1.024 l 0,0" /><path
       inkscape:connector-curvature="0"
       id="path92"
       style="fill:#a94127;fill-opacity:1;fill-rule:nonzero;stroke:none"
       d="m 837.029,886.317 c -0.663,0.097 -1.12,0.713 -1.024,1.376 0.098,0.66 0.712,1.12 1.376,1.023 0.659,-0.098 1.117,-0.714 1.021,-1.374 -0.096,-0.664 -0.711,-1.121 -1.373,-1.025 l 0,0 z m -7.195,1.055 c -0.662,0.097 -1.118,0.713 -1.022,1.375 0.098,0.662 0.714,1.12 1.374,1.024 0.662,-0.098 1.12,-0.715 1.025,-1.375 -0.098,-0.664 -0.716,-1.12 -1.377,-1.024 l 0,0 z m -7.192,1.054 c -0.662,0.098 -1.118,0.713 -1.025,1.376 0.099,0.661 0.715,1.12 1.377,1.023 0.662,-0.097 1.118,-0.713 1.024,-1.374 -0.099,-0.662 -0.714,-1.123 -1.376,-1.025 l 0,0 z m -7.192,1.055 c -0.66,0.097 -1.12,0.713 -1.025,1.375 0.099,0.662 0.713,1.121 1.377,1.025 0.66,-0.099 1.12,-0.713 1.022,-1.375 -0.097,-0.664 -0.712,-1.123 -1.374,-1.025 l 0,0 z m -7.192,1.055 c -0.663,0.097 -1.123,0.713 -1.026,1.376 0.094,0.661 0.714,1.12 1.376,1.023 0.661,-0.097 1.12,-0.714 1.021,-1.375 -0.095,-0.662 -0.71,-1.12 -1.371,-1.024 l 0,0" /><path
       inkscape:connector-curvature="0"
       id="path94"
       style="fill:#a94127;fill-opacity:1;fill-rule:nonzero;stroke:none"
       d="m 835.903,878.646 c -0.663,0.096 -1.121,0.711 -1.023,1.374 0.097,0.663 0.712,1.12 1.377,1.023 0.659,-0.096 1.117,-0.713 1.02,-1.375 -0.096,-0.662 -0.712,-1.119 -1.374,-1.022 l 0,0 z m -7.192,1.053 c -0.662,0.098 -1.121,0.714 -1.025,1.375 0.099,0.662 0.714,1.121 1.378,1.024 0.658,-0.097 1.121,-0.713 1.023,-1.376 -0.099,-0.66 -0.714,-1.119 -1.376,-1.023 l 0,0 z m -7.192,1.057 c -0.664,0.097 -1.121,0.712 -1.028,1.373 0.099,0.663 0.715,1.12 1.379,1.024 0.66,-0.097 1.118,-0.712 1.021,-1.375 -0.098,-0.663 -0.711,-1.12 -1.372,-1.022 l 0,0 z m -7.195,1.053 c -0.662,0.098 -1.119,0.713 -1.022,1.374 0.096,0.663 0.712,1.121 1.374,1.024 0.663,-0.097 1.122,-0.712 1.023,-1.375 -0.095,-0.661 -0.713,-1.119 -1.375,-1.023 l 0,0 z m -7.192,1.056 c -0.662,0.096 -1.123,0.712 -1.023,1.374 0.094,0.663 0.715,1.121 1.374,1.022 0.66,-0.097 1.12,-0.711 1.025,-1.374 -0.098,-0.661 -0.715,-1.119 -1.376,-1.022 l 0,0" /><path
       inkscape:connector-curvature="0"
       id="path96"
       style="fill:#a94127;fill-opacity:1;fill-rule:nonzero;stroke:none"
       d="m 832.871,883.008 c -0.663,0.099 -1.121,0.713 -1.025,1.377 0.096,0.66 0.712,1.12 1.374,1.022 0.662,-0.097 1.12,-0.714 1.024,-1.373 -0.099,-0.664 -0.714,-1.121 -1.373,-1.026 l 0,0 z m -7.197,1.056 c -0.661,0.096 -1.119,0.713 -1.022,1.376 0.097,0.661 0.714,1.119 1.376,1.022 0.662,-0.097 1.12,-0.715 1.024,-1.374 -0.098,-0.664 -0.713,-1.121 -1.378,-1.024 l 0,0 z m -7.19,1.055 c -0.663,0.096 -1.123,0.712 -1.024,1.375 0.096,0.66 0.712,1.119 1.374,1.022 0.662,-0.097 1.12,-0.714 1.026,-1.374 -0.098,-0.664 -0.713,-1.121 -1.376,-1.023 l 0,0 z m -7.192,1.055 c -0.661,0.095 -1.121,0.71 -1.025,1.375 0.099,0.659 0.716,1.119 1.375,1.021 0.662,-0.095 1.119,-0.713 1.023,-1.374 -0.098,-0.663 -0.714,-1.12 -1.373,-1.022 l 0,0" /><path
       inkscape:connector-curvature="0"
       id="path98"
       style="fill:#464648;fill-opacity:1;fill-rule:nonzero;stroke:none"
       d="m 791.287,758.109 23.978,-3.515 c 1.057,-0.156 2.043,0.575 2.198,1.634 0.154,1.061 -0.577,2.047 -1.637,2.202 l -23.975,3.515 c -1.061,0.155 -2.045,-0.578 -2.198,-1.637 -0.157,-1.059 0.574,-2.045 1.634,-2.199 l 0,0" /><path
       inkscape:connector-curvature="0"
       id="path100"
       style="fill:#fbd6b1;fill-opacity:1;fill-rule:nonzero;stroke:none"
       d="m 895.894,828.397 c 0,0 -40.06,18.535 -47.457,-13.438 -7.396,-31.974 36.537,-25.29 36.537,-25.29 l 10.92,38.728" /><path
       inkscape:connector-curvature="0"
       id="path102"
       style="fill:#f8f8f8;fill-opacity:1;fill-rule:nonzero;stroke:none"
       d="m 904.57,827.867 -9.312,2.724 -12.007,-43.135 8.229,-2.171 13.09,42.582" /><path
       inkscape:connector-curvature="0"
       id="path104"
       style="fill:#f8f8f8;fill-opacity:1;fill-rule:nonzero;stroke:none"
       d="m 790.244,347.8 -376.763,0 0,192.453 c 0,10.698 8.672,19.37 19.37,19.37 l 338.023,0 c 10.698,0 19.37,-8.672 19.37,-19.37 l 0,-192.453" /><path
       inkscape:connector-curvature="0"
       id="path106"
       style="fill:#464648;fill-opacity:1;fill-rule:nonzero;stroke:none"
       d="m 413.481,331.403 376.763,0 0,16.3969 -376.763,0 0,-16.3969 z" /><path
       inkscape:connector-curvature="0"
       id="path108"
       style="fill:#464648;fill-opacity:1;fill-rule:nonzero;stroke:none"
       d="m 748.188,206.067 c -5.843,0 -12.147,1.21 -19.268,3.611 -10.035,3.386 -21.023,1.755 -31.645,0.187 -6.055,-0.896 -12.315,-1.823 -18.372,-1.827 -0.01,0 -0.023,0 -0.031,0 -12.793,0 -27.828,4.703 -31.695,17.906 -3.599,12.284 4.983,24.794 14.998,29.343 6.042,2.744 13.992,3.473 21.009,4.116 1.961,0.178 3.856,0.354 5.618,0.563 l 1.41,0.167 c 12.665,1.495 24.63,2.904 30.984,14.339 5.776,10.396 6.846,23.635 6.726,32.911 -0.089,7.001 -0.211,16.589 -1.513,25.982 l 4.086,0.567 c 1.339,-9.65 1.462,-19.387 1.554,-26.495 0.125,-9.778 -1.031,-23.781 -7.247,-34.971 -7.378,-13.278 -20.966,-14.883 -34.106,-16.431 l -1.404,-0.167 c -1.798,-0.215 -3.731,-0.393 -5.732,-0.574 -6.69,-0.614 -14.272,-1.308 -19.679,-3.765 -8.482,-3.852 -15.627,-14.588 -12.743,-24.424 3.226,-11.016 16.435,-14.939 27.734,-14.939 0.008,0 0.019,0 0.029,0 5.754,0.003 11.591,0.866 17.771,1.781 11.104,1.644 22.591,3.341 33.566,-0.356 14.848,-5.009 25.756,-4.457 36.473,1.85 11.418,6.717 19.816,17.384 27.938,27.702 1.248,1.583 2.414,3.1 3.581,4.619 4.002,5.203 8.136,10.583 12.938,15.32 3.085,3.042 6.462,5.786 9.728,8.437 3.472,2.82 7.063,5.734 10.207,8.951 l 2.95,-2.886 c -3.31,-3.385 -6.993,-6.375 -10.555,-9.269 -3.191,-2.59 -6.49,-5.269 -9.431,-8.171 -4.6,-4.538 -8.65,-9.805 -12.566,-14.898 -1.174,-1.531 -2.352,-3.06 -3.544,-4.574 -8.424,-10.7 -17.067,-21.677 -29.154,-28.789 -6.61,-3.889 -13.245,-5.816 -20.615,-5.816 l 0,0" /><path
       inkscape:connector-curvature="0"
       id="path110"
       style="fill:#f8f8f8;fill-opacity:1;fill-rule:nonzero;stroke:none"
       d="m 892.822,292.259 c -18.396,-22.594 -46.314,-30.32 -62.353,-17.26 -16.041,13.062 -14.127,41.966 4.27,64.559 18.397,22.593 46.314,30.32 62.355,17.259 16.039,-13.061 14.127,-41.967 -4.272,-64.558" /><path
       inkscape:connector-curvature="0"
       id="path112"
       style="fill:#fbd6b1;fill-opacity:1;fill-rule:nonzero;stroke:none"
       d="m 909.361,341.485 c 0,0 -18.967,-47.159 -50.408,-26.183 -31.44,20.977 10.68,50.044 10.68,50.044 l 39.728,-23.861" /><path
       inkscape:connector-curvature="0"
       id="path114"
       style="fill:#f8f8f8;fill-opacity:1;fill-rule:nonzero;stroke:none"
       d="m 869.038,372.374 -6.875,-10.644 46.057,-29.236 7.132,13.782 -46.314,26.098" /><path
       inkscape:connector-curvature="0"
       id="path116"
       style="fill:#a94127;fill-opacity:1;fill-rule:nonzero;stroke:none"
       d="m 473.272,559.623 0.711,82.452 100.063,25.761 56.976,-0.374 108.973,-25.387 0.393,-82.452 -267.116,0" /><path
       inkscape:connector-curvature="0"
       id="path118"
       style="fill:#a94127;fill-opacity:1;fill-rule:nonzero;stroke:none"
       d="m 308.905,468.176 c 0,90.121 102.223,112.868 166.26,112.716 l -0.628,34.485 C 357.097,616.662 261.668,557.544 261.318,467.053 261.071,403.616 279.554,358.38 295.269,331.427 l 49.602,39.932 c -16.128,25.065 -35.966,62.805 -35.966,96.817" /><path
       inkscape:connector-curvature="0"
       id="path120"
       style="fill:#a94127;fill-opacity:1;fill-rule:nonzero;stroke:none"
       d="m 947.184,467.053 c -0.352,90.491 -95.781,149.609 -208.809,148.324 l -0.627,-34.485 c 59.627,0.152 161.848,-22.595 161.848,-112.716 0,-34.813 -20.783,-73.533 -37.1,-98.565 l 54.223,-31.976 c 14.83,27.462 30.693,70.62 30.465,129.418" /><path
       inkscape:connector-curvature="0"
       id="path122"
       style="fill:#a94127;fill-opacity:1;fill-rule:nonzero;stroke:none"
       d="m 289.799,730.888 c 0,28.292 14.542,43.005 29.265,50.657 l -10.25,47.523 C 280.496,816.114 247.832,787.658 247.832,725.27 247.83,623.912 360.326,607.43 474.825,608.714 l 0.628,33.361 c -61.097,-0.153 -185.654,-1.308 -185.654,88.813" /><path
       inkscape:connector-curvature="0"
       id="path124"
       style="fill:#a94127;fill-opacity:1;fill-rule:nonzero;stroke:none"
       d="m 901.848,830.523 -12.967,-46.206 c 16.493,-6.637 35.298,-21.257 35.298,-53.429 0,-90.121 -124.559,-88.966 -185.655,-88.813 l 0.627,-33.361 c 114.501,-1.284 226.994,15.198 226.994,116.556 -10e-4,64.839 -35.281,93.027 -64.297,105.253" /><path
       inkscape:connector-curvature="0"
       id="path126"
       style="fill:#f09d35;fill-opacity:1;fill-rule:nonzero;stroke:none"
       d="m 963.041,576.418 c 0,13.167 7.149,30.875 23.067,31.562 l 0,-63.123 c -15.918,0.684 -23.067,18.393 -23.067,31.561 z m 23.067,-44.863 0,-4.638 109.922,0 0,98.998 -109.922,0 0,-4.634 c -21.477,-0.641 -36.364,-21.509 -36.364,-44.863 0,-23.355 14.887,-44.223 36.364,-44.863" /><path
       inkscape:connector-curvature="0"
       id="path128"
       style="fill:#f8f8f8;fill-opacity:1;fill-rule:nonzero;stroke:none"
       d="m 986.108,625.915 c 0,-15.911 24.602,-28.811 54.962,-28.811 30.35,0 54.96,12.9 54.96,28.811 0,15.914 -24.61,28.814 -54.96,28.814 -30.36,-0.001 -54.962,-12.901 -54.962,-28.814" /><path
       inkscape:connector-curvature="0"
       id="path130"
       style="fill:#eeeded;fill-opacity:1;fill-rule:nonzero;stroke:none"
       d="m 1041.07,605.968 c 28.14,0 46.09,11.814 46.09,19.947 0,8.133 -17.95,19.948 -46.09,19.948 -28.14,0 -46.098,-11.815 -46.098,-19.948 0,-8.133 17.958,-19.947 46.098,-19.947 l 0,0" /><path
       inkscape:connector-curvature="0"
       id="path132"
       style="fill:#a94127;fill-opacity:1;fill-rule:nonzero;stroke:none"
       d="m 1082.67,618.159 c -6.99,-6.314 -21.76,-12.191 -41.6,-12.191 -19.84,0 -34.61,5.877 -41.604,12.191 6.994,6.314 21.764,12.189 41.604,12.189 19.84,0 34.61,-5.875 41.6,-12.189" /><path
       inkscape:connector-curvature="0"
       id="path134"
       style="fill:#f09d35;fill-opacity:1;fill-rule:nonzero;stroke:none"
       d="m 986.108,526.917 c 0,-15.912 24.602,-28.813 54.962,-28.813 30.35,0 54.96,12.901 54.96,28.813 0,15.914 -24.61,28.812 -54.96,28.812 -30.36,0 -54.962,-12.898 -54.962,-28.812" /><path
       inkscape:connector-curvature="0"
       id="path136"
       style="fill:#f8f8f8;fill-opacity:1;fill-rule:nonzero;stroke:none"
       d="m 1047.71,791.33 c 17.24,-18.672 -6.23,-27.021 -6.23,-46.099 0,-18.98 12.57,-18.642 16.75,-36.428 5.38,-22.909 -21.33,-27.303 -19.78,-47.63 -11.36,17.632 22.03,34.091 6.31,49.81 -9.61,9.611 -19.93,16.003 -19.93,32.069 0,21.256 28.54,30.716 22.88,48.278" /><path
       inkscape:connector-curvature="0"
       id="path138"
       style="fill:#a94127;fill-opacity:1;fill-rule:nonzero;stroke:none"
       d="m 101.59,514.069 144.049,0 0,13.1379 -144.049,0 0,-13.1379 z" /><path
       inkscape:connector-curvature="0"
       id="path140"
       style="fill:#f09d35;fill-opacity:1;fill-rule:nonzero;stroke:none"
       d="m 245.639,527.207 -144.049,0 19.164,116.874 105.721,0 19.164,-116.874" /><path
       inkscape:connector-curvature="0"
       id="path142"
       style="fill:#f8f8f8;fill-opacity:1;fill-rule:nonzero;stroke:none"
       d="m 173.614,556.097 c -16.319,0 -29.547,13.228 -29.547,29.548 0,16.316 13.228,29.546 29.547,29.546 16.317,0 29.547,-13.23 29.547,-29.546 0,-16.32 -13.23,-29.548 -29.547,-29.548 z m 0,79.027 c -27.327,0 -49.48,-22.152 -49.48,-49.479 0,-27.331 22.153,-49.483 49.48,-49.483 27.327,0 49.482,22.153 49.482,49.483 0,27.327 -22.155,49.479 -49.482,49.479" /><path
       inkscape:connector-curvature="0"
       id="path144"
       style="fill:#a94127;fill-opacity:1;fill-rule:nonzero;stroke:none"
       d="m 175.285,618.032 c -0.096,0 -0.198,0 -0.295,0.006 -1.855,0.071 -3.564,0.871 -4.82,2.234 -1.256,1.365 -1.908,3.143 -1.83,4.995 0.155,3.83 3.353,6.807 7.231,6.652 3.822,-0.164 6.805,-3.402 6.648,-7.231 -0.156,-3.732 -3.2,-6.656 -6.934,-6.656 l 0,0 z m -18.193,-3.594 c -2.698,0 -5.174,1.581 -6.304,4.027 -0.78,1.682 -0.859,3.573 -0.218,5.312 0.634,1.744 1.914,3.128 3.601,3.907 0.923,0.429 1.902,0.646 2.916,0.646 2.693,0 5.171,-1.577 6.306,-4.022 1.607,-3.48 0.091,-7.618 -3.382,-9.223 -0.931,-0.429 -1.909,-0.647 -2.919,-0.647 l 0,0 z m 36,-1.527 c -1.196,0 -2.385,0.313 -3.43,0.912 -1.613,0.924 -2.774,2.415 -3.262,4.204 -0.49,1.788 -0.254,3.659 0.669,5.272 1.232,2.16 3.546,3.504 6.041,3.504 1.196,0 2.388,-0.315 3.436,-0.913 3.324,-1.901 4.482,-6.147 2.586,-9.477 -1.231,-2.162 -3.545,-3.502 -6.04,-3.502 l 0,0 z m -50.531,-10.009 c -1.559,0 -3.037,0.515 -4.27,1.476 -1.461,1.138 -2.392,2.783 -2.615,4.625 -0.231,1.842 0.272,3.659 1.412,5.121 1.329,1.698 3.321,2.671 5.482,2.671 1.561,0 3.036,-0.508 4.268,-1.469 1.468,-1.142 2.396,-2.783 2.621,-4.627 0.229,-1.841 -0.278,-3.66 -1.421,-5.123 -1.321,-1.696 -3.319,-2.674 -5.477,-2.674 l 0,0 z m 64.043,-2.712 c -2.356,0 -4.529,1.178 -5.824,3.154 -2.089,3.204 -1.183,7.518 2.026,9.608 1.129,0.744 2.441,1.134 3.787,1.134 2.36,0 4.536,-1.175 5.823,-3.15 2.096,-3.208 1.187,-7.519 -2.02,-9.611 -1.129,-0.744 -2.441,-1.135 -3.792,-1.135 l 0,0 z m -71.672,-14.183 c -0.43,0 -0.864,0.043 -1.285,0.12 -3.771,0.707 -6.253,4.345 -5.546,8.107 0.616,3.284 3.479,5.666 6.813,5.666 0.436,0 0.864,-0.038 1.293,-0.122 3.763,-0.706 6.251,-4.343 5.545,-8.105 -0.615,-3.286 -3.485,-5.666 -6.82,-5.666 l 0,0 z m 0.931,-18.519 c -3.05,0 -5.788,2.041 -6.656,4.973 -0.527,1.778 -0.332,3.659 0.554,5.293 0.882,1.625 2.351,2.809 4.13,3.342 0.647,0.187 1.314,0.284 1.977,0.284 3.05,0 5.792,-2.038 6.656,-4.97 1.087,-3.673 -1.015,-7.544 -4.68,-8.633 -0.646,-0.193 -1.31,-0.289 -1.981,-0.289 l 0,0 z m 9.331,-16.03 0,0 c -1.915,0 -3.698,0.76 -5.014,2.137 -1.287,1.342 -1.969,3.106 -1.931,4.96 0.037,1.855 0.797,3.583 2.137,4.862 1.299,1.251 3.009,1.933 4.803,1.933 1.913,0 3.695,-0.759 5.019,-2.136 1.279,-1.343 1.967,-3.098 1.926,-4.956 -0.036,-1.855 -0.799,-3.581 -2.131,-4.866 -1.304,-1.246 -3.007,-1.934 -4.809,-1.934 l 0,0 z m 15.621,-9.995 -0.008,0 c -0.766,0 -1.522,0.125 -2.252,0.375 -1.759,0.601 -3.172,1.854 -3.987,3.519 -0.814,1.667 -0.93,3.551 -0.325,5.31 0.968,2.803 3.605,4.688 6.572,4.688 0.766,0 1.52,-0.127 2.258,-0.375 l 0.096,-0.043 c 1.71,-0.616 3.087,-1.846 3.884,-3.483 0.816,-1.663 0.93,-3.548 0.325,-5.306 -0.964,-2.8 -3.604,-4.685 -6.563,-4.685 l 0,0 z m 18.46,-1.727 c -3.432,0 -6.382,2.559 -6.87,5.951 -0.265,1.84 0.201,3.666 1.31,5.155 1.112,1.486 2.736,2.454 4.574,2.72 0.333,0.045 0.664,0.07 0.995,0.07 3.425,0 6.378,-2.563 6.869,-5.963 0.549,-3.786 -2.09,-7.313 -5.884,-7.863 -0.333,-0.046 -0.663,-0.07 -0.994,-0.07 l 0,0" /><path
       inkscape:connector-curvature="0"
       id="path146"
       style="fill:#a94127;fill-opacity:1;fill-rule:nonzero;stroke:none"
       d="m 206.727,546.17 -7.528,-5.031 -10.222,17.63 5.381,3.591 12.369,-16.19" /><path
       inkscape:connector-curvature="0"
       id="path148"
       style="fill:#f09d35;fill-opacity:1;fill-rule:nonzero;stroke:none"
       d="m 137.279,635.124 12.268,0 0,19.9797 -12.268,0 0,-19.9797 z" /><path
       inkscape:connector-curvature="0"
       id="path150"
       style="fill:#f09d35;fill-opacity:1;fill-rule:nonzero;stroke:none"
       d="m 197.683,635.124 12.2684,0 0,19.9797 -12.2684,0 0,-19.9797 z" /><path
       inkscape:connector-curvature="0"
       id="path152"
       style="fill:#464648;fill-opacity:1;fill-rule:nonzero;stroke:none"
       d="m 378.356,726.023 c 3.309,-12.632 2.044,-26.49 -8.128,-35.622 -7.964,-7.151 -19.089,-9.573 -29.399,-10.793 -18.316,-2.169 -38,-0.337 -54.445,-10.189 -20.608,-12.345 -23.079,-37.74 -19.674,-59.164 2.103,-13.228 7.046,-28.315 2.564,-41.475 -3.817,-11.211 -16.686,-15.922 -27.402,-18.597 l 0.67,-4.084 c 9.197,2.283 18.182,5.672 25.017,12.486 8.626,8.6 7.959,20.986 6.579,32.137 -1.733,13.991 -5.729,27.618 -4.767,41.839 1.012,14.933 9.825,28.848 23.178,35.535 19.157,9.594 42.721,4.499 63.022,10.13 9.449,2.621 18.322,8.105 23.746,16.385 5.973,9.119 5.76,21.677 3.168,31.945 -1.059,-0.178 -2.461,-0.43 -4.129,-0.533" /><path
       inkscape:connector-curvature="0"
       id="path154"
       style="fill:#fbd6b1;fill-opacity:1;fill-rule:nonzero;stroke:none"
       d="m 631.37,722 -0.348,-53.068 -28.869,-64.162 -28.107,64.536 0.348,53.067 L 631.37,722" /><path
       inkscape:connector-curvature="0"
       id="path156"
       style="fill:#464648;fill-opacity:1;fill-rule:nonzero;stroke:none"
       d="m 472.574,803.357 c 0,0 -0.075,-66.783 -14.511,-108.39 0,0 61.146,-4.271 108.234,10.972 46.359,15.008 46.357,12.691 46.357,12.691 l -140.08,84.727" /><path
       inkscape:connector-curvature="0"
       id="path158"
       style="fill:#fbd6b1;fill-opacity:1;fill-rule:nonzero;stroke:none"
       d="m 464.871,832.668 c -0.09,-79.577 54.797,-144.149 126.427,-144.229 71.629,-0.081 132.875,64.359 132.965,143.936 0.09,79.577 -57.904,144.152 -129.533,144.233 -124.26,0.141 -129.769,-64.363 -129.859,-143.94" /><path
       inkscape:connector-curvature="0"
       id="path160"
       style="fill:#464648;fill-opacity:1;fill-rule:nonzero;stroke:none"
       d="m 669.543,838.747 -1.134,37.844 c 0,0 -111.297,-20.8 -209.482,2.19 6.088,66.946 63.989,119.907 134.522,119.64 167.597,-0.19 170.667,-154.853 133.38,-283.065 -47.07,-19.862 -86.423,-22.479 -86.423,-22.479 23.597,44.053 29.108,121.772 29.108,121.772 0,0 26.539,-10.073 24.687,16.558 -1.274,18.323 -24.658,7.54 -24.658,7.54" /><path
       inkscape:connector-curvature="0"
       id="path162"
       style="fill:#ec6180;fill-opacity:1;fill-rule:nonzero;stroke:none"
       d="m 592.233,750.561 c -0.73,-12.257 -13.572,-17.388 -28.545,-16.496 -14.972,0.891 -26.405,7.466 -25.675,19.724 0.73,12.257 13.46,21.471 28.432,20.58 14.972,-0.892 26.518,-11.551 25.788,-23.808" /><path
       inkscape:connector-curvature="0"
       id="path164"
       style="fill:#464648;fill-opacity:1;fill-rule:nonzero;stroke:none"
       d="m 509.732,791.102 c -13.54,0 -22.694,7.186 -24.486,19.221 -0.891,6 0.606,11.989 4.216,16.864 3.613,4.875 8.907,8.051 14.906,8.943 0.918,0.135 1.848,0.204 2.767,0.204 3.976,0 7.779,-1.261 10.996,-3.647 3.979,-2.946 6.571,-7.267 7.299,-12.164 0.597,-4.016 -0.406,-8.021 -2.821,-11.282 -2.418,-3.26 -5.959,-5.385 -9.973,-5.982 -0.621,-0.093 -1.251,-0.14 -1.874,-0.14 -2.679,0 -5.246,0.852 -7.421,2.464 -2.688,1.992 -4.44,4.91 -4.931,8.218 -0.408,2.744 0.276,5.482 1.927,7.71 1.651,2.229 4.072,3.681 6.815,4.089 0.433,0.064 0.867,0.097 1.297,0.097 1.858,0 3.636,-0.591 5.142,-1.707 1.862,-1.38 3.074,-3.402 3.415,-5.693 0.592,-3.983 -2.166,-7.706 -6.148,-8.3 -0.094,-0.013 -0.186,-0.02 -0.276,-0.02 -0.898,-10e-4 -1.674,0.671 -1.807,1.561 -0.148,0.999 0.543,1.933 1.542,2.082 1.985,0.296 3.361,2.152 3.067,4.138 -0.197,1.324 -0.898,2.492 -1.973,3.289 -0.869,0.644 -1.898,0.984 -2.978,0.984 -0.246,0 -0.493,-0.017 -0.74,-0.053 -1.778,-0.265 -3.345,-1.205 -4.412,-2.647 -1.069,-1.44 -1.513,-3.213 -1.248,-4.99 0.349,-2.343 1.587,-4.407 3.488,-5.814 1.538,-1.141 3.356,-1.744 5.258,-1.744 0.437,0 0.877,0.033 1.318,0.099 3.048,0.453 5.736,2.066 7.569,4.54 1.835,2.475 2.595,5.515 2.141,8.56 -0.583,3.93 -2.663,7.397 -5.855,9.763 -2.583,1.914 -5.637,2.926 -8.833,2.926 -0.735,0 -1.479,-0.055 -2.212,-0.163 -5.032,-0.749 -9.471,-3.412 -12.501,-7.501 -3.03,-4.09 -4.285,-9.113 -3.535,-14.144 2.077,-13.967 14.152,-16.052 21.164,-16.052 2.382,0 4.412,0.227 5.696,0.42 7.382,1.097 13.139,4.252 16.649,9.124 3.63,5.035 4.907,11.995 3.696,20.126 -1.03,6.928 -5.021,12.461 -11.235,15.58 -3.51,1.761 -7.478,2.654 -11.795,2.654 -6.099,0 -12.716,-1.824 -19.137,-5.275 -0.266,-0.143 -0.566,-0.219 -0.867,-0.219 -0.675,0 -1.294,0.37 -1.614,0.966 -0.231,0.431 -0.28,0.925 -0.139,1.394 0.141,0.469 0.456,0.854 0.886,1.085 6.947,3.735 14.165,5.708 20.874,5.708 4.893,0 9.413,-1.022 13.435,-3.04 7.205,-3.615 12.022,-10.291 13.216,-18.313 1.353,-9.096 -0.151,-16.983 -4.348,-22.809 -4.102,-5.69 -10.7,-9.357 -19.081,-10.606 -2.251,-0.334 -4.45,-0.504 -6.539,-0.504 l 0,0" /><path
       inkscape:connector-curvature="0"
       id="path166"
       style="fill:#464648;fill-opacity:1;fill-rule:nonzero;stroke:none"
       d="m 611.912,791.626 c -8.877,0 -16.993,3.435 -22.847,9.672 -6.489,6.91 -9.011,16.073 -6.742,24.511 2.381,8.883 6.901,15.517 13.073,19.187 3.75,2.231 8.059,3.363 12.806,3.363 2.854,0 5.856,-0.417 8.922,-1.24 16.639,-4.468 24.685,-15.783 20.997,-29.529 -2.66,-9.907 -11.685,-16.826 -21.945,-16.826 -1.975,0 -3.954,0.261 -5.878,0.777 -9.869,2.649 -15.746,12.835 -13.101,22.705 1.78,6.63 7.815,11.26 14.676,11.26 1.325,0 2.65,-0.175 3.942,-0.522 6.666,-1.79 10.634,-8.672 8.846,-15.338 -1.217,-4.531 -5.342,-7.696 -10.032,-7.696 -0.903,0 -1.807,0.12 -2.687,0.356 -4.618,1.24 -7.367,6.008 -6.13,10.628 0.859,3.185 3.764,5.409 7.063,5.409 0.634,0 1.268,-0.084 1.885,-0.25 0.974,-0.261 1.554,-1.267 1.294,-2.244 -0.216,-0.798 -0.94,-1.357 -1.763,-1.357 -0.162,0 -0.323,0.022 -0.481,0.064 -0.309,0.084 -0.626,0.126 -0.944,0.126 -1.642,0 -3.087,-1.11 -3.515,-2.699 -0.715,-2.669 0.873,-5.423 3.541,-6.139 0.568,-0.152 1.152,-0.229 1.735,-0.229 3.039,0 5.709,2.048 6.494,4.98 0.614,2.281 0.299,4.668 -0.884,6.72 -1.183,2.052 -3.092,3.52 -5.374,4.132 -0.975,0.262 -1.979,0.395 -2.982,0.395 -5.211,0 -9.795,-3.513 -11.144,-8.543 -2.126,-7.921 2.59,-16.094 10.512,-18.22 1.615,-0.434 3.274,-0.654 4.933,-0.654 8.604,0 16.171,5.803 18.401,14.113 4.667,17.398 -12.91,23.568 -18.41,25.044 -2.746,0.738 -5.424,1.112 -7.957,1.112 -4.091,0 -7.775,-0.957 -10.949,-2.846 -5.334,-3.174 -9.278,-9.049 -11.407,-16.989 -1.936,-7.203 0.26,-15.074 5.872,-21.054 5.158,-5.491 12.33,-8.515 20.193,-8.515 2.032,0 4.096,0.209 6.13,0.62 0.123,0.025 0.246,0.038 0.368,0.038 0.865,0 1.619,-0.618 1.791,-1.47 0.2,-0.989 -0.444,-1.957 -1.434,-2.157 -2.28,-0.462 -4.59,-0.695 -6.868,-0.695 l 0,0" /><path
       inkscape:connector-curvature="0"
       id="path168"
       style="fill:#f8f8f8;fill-opacity:1;fill-rule:nonzero;stroke:none"
       d="m 574.046,669.306 -12.153,-4.259 40.083,-87.222 41.75,86.983 -12.622,4.124 -28.951,-64.162 -28.107,64.536" /><path
       inkscape:connector-curvature="0"
       id="path170"
       style="fill:#f8f8f8;fill-opacity:1;fill-rule:nonzero;stroke:none"
       d="m 631.104,668.932 15.39,-5.028 5.655,-57.133 -21.383,10.563 -24.702,-3.897 25.04,55.495" /><path
       inkscape:connector-curvature="0"
       id="path172"
       style="fill:#f8f8f8;fill-opacity:1;fill-rule:nonzero;stroke:none"
       d="m 574.046,669.306 -14.818,-5.194 -7.04,-56.685 21.52,10.281 24.648,-4.22 -24.31,55.818" /><path
       inkscape:connector-curvature="0"
       id="path174"
       style="fill:#f8f8f8;fill-opacity:1;fill-rule:nonzero;stroke:none"
       d="m 913.932,352.985 c -2.574,0.347 -4.373,2.709 -4.03,5.282 0.342,2.566 2.707,4.371 5.275,4.022 2.572,-0.348 4.377,-2.707 4.032,-5.278 -0.343,-2.567 -2.706,-4.374 -5.277,-4.026" /><path
       inkscape:connector-curvature="0"
       id="path176"
       style="fill:#f8f8f8;fill-opacity:1;fill-rule:nonzero;stroke:none"
       d="m 921.467,369.893 c -2.574,0.347 -4.372,2.709 -4.03,5.282 0.342,2.566 2.708,4.371 5.275,4.023 2.572,-0.348 4.377,-2.708 4.032,-5.278 -0.343,-2.568 -2.706,-4.375 -5.277,-4.027" /><path
       inkscape:connector-curvature="0"
       id="path178"
       style="fill:#f8f8f8;fill-opacity:1;fill-rule:nonzero;stroke:none"
       d="m 909.582,811.18 c -2.573,0.348 -4.372,2.709 -4.03,5.282 0.342,2.567 2.708,4.371 5.275,4.023 2.572,-0.348 4.377,-2.707 4.032,-5.278 -0.343,-2.568 -2.706,-4.374 -5.277,-4.027" /><path
       inkscape:connector-curvature="0"
       id="path180"
       style="fill:#f8f8f8;fill-opacity:1;fill-rule:nonzero;stroke:none"
       d="m 923.06,801.759 c -2.574,0.348 -4.373,2.71 -4.031,5.283 0.343,2.566 2.708,4.371 5.276,4.022 2.572,-0.348 4.377,-2.707 4.032,-5.278 -0.343,-2.567 -2.707,-4.374 -5.277,-4.027" /><path
       inkscape:connector-curvature="0"
       id="path182"
       style="fill:#f8f8f8;fill-opacity:1;fill-rule:nonzero;stroke:none"
       d="m 299.659,808.734 c 2.573,0.348 4.372,2.709 4.03,5.282 -0.343,2.567 -2.708,4.371 -5.276,4.023 -2.572,-0.348 -4.377,-2.707 -4.032,-5.278 0.343,-2.568 2.707,-4.374 5.278,-4.027" /><path
       inkscape:connector-curvature="0"
       id="path184"
       style="fill:#f8f8f8;fill-opacity:1;fill-rule:nonzero;stroke:none"
       d="m 286.181,799.313 c 2.573,0.348 4.372,2.71 4.03,5.283 -0.342,2.566 -2.708,4.371 -5.275,4.022 -2.572,-0.348 -4.377,-2.707 -4.032,-5.278 0.343,-2.567 2.706,-4.374 5.277,-4.027" /><path
       inkscape:connector-curvature="0"
       id="path186"
       style="fill:#f8f8f8;fill-opacity:1;fill-rule:nonzero;stroke:none"
       d="m 298.108,345.71 c 2.552,0.479 4.227,2.93 3.753,5.482 -0.474,2.545 -2.929,4.226 -5.475,3.746 -2.551,-0.48 -4.232,-2.929 -3.756,-5.478 0.475,-2.547 2.928,-4.23 5.478,-3.75" /><path
       inkscape:connector-curvature="0"
       id="path188"
       style="fill:#f8f8f8;fill-opacity:1;fill-rule:nonzero;stroke:none"
       d="m 289.713,362.208 c 2.552,0.479 4.227,2.93 3.753,5.483 -0.474,2.545 -2.929,4.226 -5.475,3.746 -2.551,-0.48 -4.232,-2.929 -3.755,-5.479 0.474,-2.546 2.927,-4.229 5.477,-3.75" /></g></svg>